<svg width="150" height="110" fill="none" xmlns="http://www.w3.org/2000/svg"><path fill-rule="evenodd" clip-rule="evenodd" d="M40.16 70.52c-.26 0-.52.04-.77.07l-.16.02c-.19.02-.38.02-.57.02h-.16a19.59 19.59 0 0 0-2.35.18l-.35.05c-.52.03-1.05.04-1.57.04a51.72 51.72 0 0 0-2.03.08c-.34.02-.69.06-1.02.1l-.33.04c-.65.06-1.32.08-1.96.11l-.42.02c-.45.02-.91.02-1.35.02l-1.12.01c-.98.03-1.87.12-2.7.29l-.35.06-.87.17-1.03.15-.28.03a.68.68 0 0 0-.25.1.98.98 0 0 0-.98-.33c-.22.05-.5.2-.6.43l-.02.04a3.83 3.83 0 0 0-.43 1.68l-.03.32-.03.23a7.72 7.72 0 0 0-.04 1.88c0 .2.02.4.03.59.01.35 0 .7-.02 1.04l-.01.37a88.75 88.75 0 0 1-.4 6.5l-.1.86c-.04.56-.1 1.05-.14 1.5a335.8 335.8 0 0 0-.43 4.43l-.15 1.65-.18 1.85a134 134 0 0 1-.21 2.5 52.62 52.62 0 0 1-.27 2.59c-.07.58-.15 1.18-.19 1.77a4.07 4.07 0 0 0 .04.77c.04.17.1.32.17.47a1.27 1.27 0 0 0 .77.61c.1.04.23.05.4.05h.19c.51-.02 1.02-.06 1.51-.12.46-.05.93-.13 1.38-.2l1.15-.17.6-.04.6-.04a34.02 34.02 0 0 1 2.11-.11c.77 0 1.55.05 2.3.1h.09c.56.04 1.12.1 1.67.15l1.32.12c.5.04.95.06 1.4.06a12.45 12.45 0 0 0 2.77-.32 13.27 13.27 0 0 0 .85-.25c.2-.06.41-.1.61-.13l.36-.08c.28-.06.56-.14.85-.25l.05-.02c.21-.08.42-.15.58-.31.22-.21.33-.43.43-.69.04-.1.05-.2.07-.3l.02-.06.08-.56c.06-.5.13-.99.2-1.4.04-.3.08-.6.1-.9l.07-.52.05-.42c.04-.29.08-.59.1-.88.05-.54.12-1.07.18-1.6l.16-1.41.07-.77.07-.64c.03-.3.04-.62.06-.93l.02-.52a48.3 48.3 0 0 1 .4-3.88l.06-.63.1-.78a70.55 70.55 0 0 0 .4-3.85v-.06c.04-.49.08-1 .1-1.5l.03-.54.04-.97c.04-.62.08-1.29.14-1.97l.12-1.08.11-1.04.05-.5c.06-.53.12-1.07.12-1.6 0-.25 0-.54-.06-.8a1.26 1.26 0 0 0-1.16-.95h-.06zM77.84 50.48l-.17.02-.07.01-.52.06c-.25.03-.5.09-.71.14-.34.08-.72.15-1.17.21a9.1 9.1 0 0 1-.54.02l-.71-.02h-.05a357.7 357.7 0 0 0-3.58-.06h-1.1c-.48.02-1 .04-1.57.09-.18 0-.35.02-.53.04a31.68 31.68 0 0 1-2.37.1c-.48 0-.97 0-1.45.02-.46.02-.92.06-1.37.1l-.65.05c-.65.05-1.41.11-2.15.25l-.16.04a20.94 20.94 0 0 0-1.22.27l-.5.12-2.09.47a.92.92 0 0 0-.58.42 1 1 0 0 0-.13.76c.04.2.16.38.32.51a.96.96 0 0 0-.18.33c-.05.16-.05.33-.06.5V55.52a10.64 10.64 0 0 0 .25 2.3l.16.86c.04.7.02 1.42-.01 2.12l-.02.6v.03l-.09 2.98a124 124 0 0 0-.05 6.08v.24c.01.4.02.8.01 1.2 0 .42-.02.84-.03 1.25l-.01.4-.03.87-.07 2.2c-.07 2.16-.15 4.3-.28 6.44l-.14 1.67-.11 1.33a94.77 94.77 0 0 1-.46 4.94 134.05 134.05 0 0 1-.21 2.16c-.07.71-.15 1.46-.25 2.18-.16 1.05-.31 2.12-.41 3.2l-.1 1.28-.04.38-.02.29c-.03.39-.06.8-.07 1.2 0 .52.03 1.13.35 1.6l.15.2c.08.09.18.16.28.23.12.08.31.14.45.18a3.46 3.46 0 0 0 1.12.1l.16-.01.73-.02c.48 0 .97-.03 1.45-.05l1.47-.06a33.78 33.78 0 0 0 3.05-.23 19.08 19.08 0 0 1 3.09-.01l1.23.09c.58.04 1.18.09 1.77.11a40.88 40.88 0 0 0 4.11-.04c.32-.04.62-.14.96-.27.4-.16.66-.36.82-.62.14-.22.23-.47.3-.78a8.54 8.54 0 0 0 .12-.86l.12-.53.12-.5.12-.6.1-.55.12-.57a31.96 31.96 0 0 0 .75-4.77l.08-.66a33.78 33.78 0 0 1 .23-1.8 64.65 64.65 0 0 0 .52-4.11l.04-.4c.03-.38.08-.74.12-1.11l.05-.47.08-.94.04-.47.02-.24a27.42 27.42 0 0 0 .13-2.16c.03-.73.06-1.5.11-2.24.08-1.1.17-2.15.3-3.18l.15-1.15.25-1.92.05-.4c.13-.88.26-1.8.33-2.7l.07-.78c.07-.81.14-1.65.19-2.47.06-1.13.14-2.17.22-3.17l.13-1.83.08-1.15.03-.45c.06-.86.13-1.74.16-2.6l.11-3.2.07-1.4v-.15l.03-.6c.01-.31-.05-.6-.2-.91a1.2 1.2 0 0 0-.67-.56 10.42 10.42 0 0 0-.37-.06zM95.56 26.87a.98.98 0 0 0-.95.68 1 1 0 0 0 .03.65.65.65 0 0 0-.02.22v.72c-.28.29-.33.77-.37 1.16l-.07.73c-.04.44-.05.9-.06 1.33v.15a82.41 82.41 0 0 0 0 4.27 39.27 39.27 0 0 0 .1 1.4c.04.86.06 1.8.05 2.95-.01 1 0 2 .03 3.08.02.86-.01 1.73-.04 2.58l-.01.5-.05 1.54-.15 4.6c-.07 2.04-.15 4.14-.33 6.22l-.23 2.69-.05.59c-.03.42-.08.84-.12 1.25l-.02.24-.1 1.03-.04.49-.26 2.33-.08.76-.06.47c-.1.87-.2 1.76-.24 2.64l-.03.75a106.64 106.64 0 0 1-.38 5.72l-.07 1.05-.03.51-.11 1.57c-.07.86-.11 1.73-.15 2.57l-.02.51a89.18 89.18 0 0 1-.22 3.5c-.03.36-.06.74-.07 1.1l-.04 1.62-.01.35c-.04 1.43-.07 2.9-.03 4.35 0 .44.03.88.06 1.3l.05.97v.18l.06.95.1 1.1.03.3.02.35.02.31c0 .13 0 .27.02.4v.07c.02.18.04.35.1.52.08.28.22.51.4.7.27.25.62.42 1.1.53l.21.04c.4.1.82.18 1.23.26h.06c1.05.18 2.06.3 3.09.35l.14.01a18.57 18.57 0 0 0 2.9-.05l.82-.04.67-.03 1.55-.08c.55-.02 1.02-.04 1.46-.09l.88-.1.71-.08.37-.04.65-.06c.32-.04.62-.14.88-.23l.43-.17.1-.04.53-.2.27-.14.07-.04c.26-.14.5-.37.73-.71.13-.2.2-.42.25-.64l.05-.16c.08-.26.13-.48.17-.68l.15-.67.12-.5c.03-.2.1-.39.15-.57v-.05c.06-.15.1-.3.14-.46l.06-.25a14.24 14.24 0 0 0 .48-2.65l.03-.34c.03-.36.08-.72.13-1.08l.05-.39.07-.7.07-.71.08-.58.14-1.08.07-.68a41.42 41.42 0 0 0 .14-1.67l.06-.8c.05-.5.1-1.01.2-1.58l.17-.95.2-1.03a30.19 30.19 0 0 0 .39-3.4l.09-1.05c.06-.7.15-1.43.26-2.15l.06-.37c.3-1.68.6-3.4.75-5.13.05-.53.08-1.07.1-1.6l.08-1.14c.06-.82.17-1.72.32-2.73l.02-.09c.02-.07.03-.13.03-.2.02-.06.03-.12.03-.19v-.03l.01-.02.01-.05v-.02c.2-1.2.33-2.1.42-2.97l.2-2 .1-1.15.14-1.68.12-1.44c.06-.65.15-1.32.23-1.96l.15-1.06c.11-.97.22-2 .32-3.12.09-1 .2-2.04.34-3.16l.37-3c.13-1.03.24-2.06.34-3.08l.1-1.13.06-.8c.04-.44.06-.88.08-1.31l.02-.5c.06-1.12.14-2.44.34-3.74l.02-.1c.11-.67.23-1.36.26-2.04 0-.22-.03-.44-.07-.66v-.04a4.9 4.9 0 0 0-.35-1.06c-.21-.45-.6-.77-1.1-.95a6.26 6.26 0 0 0-2.05-.25h-1.06c-.34-.01-.7-.04-1.09-.1l-.47-.08c-.75-.13-1.52-.27-2.3-.34-.4-.04-.9-.08-1.39-.1l-1.48-.04-.93-.03a2889.48 2889.48 0 0 1-7.6-.25c-.96-.05-1.9-.1-2.84-.24-.44-.1-.88-.2-1.24-.3-.1-.03-.19-.04-.28-.04z" fill="#fff"/><path fill-rule="evenodd" clip-rule="evenodd" d="M25.37 70.82zm.02-.07l-.04.05.04-.05zm19.44-.4l.06.08-.06-.09zm-.15-.08l.08.04-.08-.04zm.04-.03l.03.03-.03-.03zM33.4 67.46a42.87 42.87 0 0 0-2.6.2c-1.11.12-2.22.24-3.32.4a13.84 13.84 0 0 0-2 .46l-.58.23c-.33.14-.65.35-.89.63-.27.3-.43.64-.53 1.03-.03.1-.04.2-.06.31-.05.3-.1.6-.13.91l-.14 1.57a72.17 72.17 0 0 1-.26 3.16l-.32 3.04c-.06.52-.1 1.05-.13 1.57-.04.49-.09.97-.1 1.46-.08 2.08-.13 4.16-.23 6.24-.04 1.05-.1 2.09-.18 3.13-.08 1-.13 1.99-.16 2.98a724 724 0 0 0-.08 3.2c-.03 1.05-.05 2.1-.02 3.15 0 .48.05.95.08 1.42l.03.26a.98.98 0 0 0 .92.75c.26 0 .51-.1.7-.27.17-.16.32-.44.3-.68-.04-.56-.08-1.11-.1-1.67l.01-1.53c.01-1 .04-2.01.07-3.01.03-1.08.05-2.17.1-3.24.06-1.05.16-2.08.22-3.12.12-2.08.18-4.16.24-6.24l.05-1.45c.02-.48.07-.96.1-1.45l.3-3.24c.11-1.07.25-2.13.33-3.2.08-1.07.13-2.16.28-3.23a3.75 3.75 0 0 1 .15-.55 10.95 10.95 0 0 1 1.34-.51c.36-.1.73-.14 1.09-.2a67.18 67.18 0 0 1 3.54-.43l-.12.02c.91-.1 1.82-.16 2.73-.17 1.02 0 2.04.01 3.05.03 1.81.04 3.64.05 5.43.33.77.14 1.53.28 2.25.57l.06.28c.07.91.03 1.82-.04 2.73-.04.52-.1 1.03-.16 1.54-.05.48-.09.95-.15 1.42a55.92 55.92 0 0 0-.3 3.1c-.07 1.01-.19 2.02-.27 3.04-.1 1.4-.3 2.79-.52 4.17-.18 1.03-.39 2.06-.54 3.1-.13.94-.2 1.9-.3 2.85-.1 1.02-.18 2.04-.24 3.07-.02.48-.03.97-.07 1.45-.03.47-.09.94-.13 1.41-.06.7-.14 1.42-.1 2.12 0 .26.07.5.26.7a.98.98 0 0 0 1.68-.64c-.02-.51.02-1.03.06-1.54l.13-1.34c.1-.96.11-1.93.17-2.9.05-.94.15-1.89.25-2.83l.13-1.4c.04-.44.1-.87.17-1.3.18-1.01.38-2.02.54-3.03.15-1 .29-2 .4-3l.11-1.43.15-1.58c.05-.53.08-1.07.12-1.6l.15-1.5.17-1.44.16-1.53a22.76 22.76 0 0 0 .11-3.65l-.06-.56a2.4 2.4 0 0 0-.25-.74l-.22-.3-.09-.09a1.4 1.4 0 0 0-.3-.22c-.12-.08-.26-.13-.39-.18-.1-.05-.2-.1-.32-.13a18.7 18.7 0 0 0-.72-.22c-.54-.15-1.1-.24-1.65-.33a18.4 18.4 0 0 0-1.47-.18c-1.75-.15-3.52-.17-5.28-.2a92 92 0 0 0-2.61.02zM80.68 82l-.01.1.01-.1zm2.7-31.9l.02.01h-.02zm-22.85-.33l-.05.06a.87.87 0 0 1 .05-.06zm.2-.16zm8.82-2.15c-1.02.04-2.04.13-3.06.18-1 .05-2 .1-3.01.08a113.21 113.21 0 0 0-2.28.01c-.52.04-1.05.05-1.52.27-.34.16-.6.44-.78.75-.13.21-.2.47-.25.71-.06.34-.1.67-.11 1l-.06 1.55-.37 12.46c-.13 4.17-.22 8.35-.5 12.52-.08 1.03-.14 2.05-.18 3.08l-.16 3.34-.1 1.57c-.03.46-.06.92-.07 1.38-.03 1.13-.05 2.25-.05 3.38 0 .9.03 1.82 0 2.73-.03 1.03-.07 2.06-.12 3.08a57.5 57.5 0 0 1-.22 2.94c-.1 1.01-.16 2.02-.24 3.03-.04.53.43.99.95 1 .55.02.96-.41 1-.94.08-1.06.15-2.12.25-3.18.1-1.04.18-2.08.23-3.13.05-1.04.1-2.08.1-3.12v-3.3c0-1.05.03-2.1.08-3.14l.19-3.14.14-3.15c.04-1.03.13-2.06.2-3.1.26-4.2.35-8.41.47-12.63l.38-12.45a14.28 14.28 0 0 1 .13-1.5l.2-.03c.67-.06 1.34-.05 2.01-.04h.9c1 0 2.03-.03 3.04-.1 1.07-.06 2.14-.13 3.21-.17 1.01-.04 2.02-.02 3.04 0 .85 0 1.7.02 2.57.04.91.03 1.83.04 2.74.11.83.07 1.66.2 2.49.3l1.17.1c.37.02.74.04 1.11.08l.06.28c.02.54 0 1.08-.05 1.6-.04.52-.08 1.02-.14 1.53a85.28 85.28 0 0 0-.3 3.22c-.09 1.04-.2 2.08-.28 3.13-.09 1-.21 2-.28 3-.15 2.12-.32 4.23-.52 6.34-.1 1-.17 2-.26 3-.1 1.04-.19 2.08-.24 3.12-.06 1.2-.1 2.4-.14 3.59a34.81 34.81 0 0 1-.28 3.41l-.23 1.31c-.1.54-.2 1.08-.27 1.62-.14 1.03-.21 2.07-.31 3.11-.21 2.05-.29 4.1-.35 6.16l-.1 3.24-.05 1.62c-.02.61-.03 1.22-.08 1.83-.05.53.43 1 .94 1a.98.98 0 0 0 1-.94c.1-1.08.1-2.16.13-3.24l.1-3.15c.06-2.05.14-4.1.32-6.14.06-.63.13-1.25.18-1.88.05-.61.12-1.22.21-1.82.17-1 .37-2 .5-3 .14-1.02.2-2.04.24-3.06.07-2.08.14-4.17.33-6.25l.14-1.48.14-1.63.26-3.02.24-3 .13-1.64c.04-.5.1-.98.15-1.46l.13-1.53.15-1.58c.08-1.07.17-2.14.29-3.2.1-1.02.23-2.04.25-3.06v-.43c.01-.35-.04-.7-.1-1.06-.04-.17-.1-.34-.17-.5l-.05-.12-.25-.35a1.51 1.51 0 0 0-.54-.35c-.23-.1-.47-.13-.72-.16-.22-.04-.45-.04-.68-.06l-.75-.05c-1-.08-2-.22-3-.34-1.03-.12-2.07-.12-3.1-.15-1.31-.03-2.62-.06-3.93-.06-.75 0-1.5 0-2.24.03zM122.68 29.44zm-23.43-7.7a1.64 1.64 0 0 0-.71.86 3.78 3.78 0 0 0-.23.62 23.12 23.12 0 0 0-.54 3.2 75.88 75.88 0 0 0-.29 3.09L97.42 31l-.09 1.57c-.06 1.03-.16 2.06-.25 3.1-.05.52-.07 1.04-.1 1.56l-.13 1.54c-.2 2.1-.36 4.2-.5 6.3-.07 1.01-.16 2.03-.22 3.05l-.19 3.24a110.3 110.3 0 0 0-.16 3.13c-.04 1.05-.05 2.1-.07 3.14l-.04 3.18c0 1.03.03 2.06 0 3.1-.04 2.12-.11 4.24-.18 6.36-.13 4.38-.25 8.75-.41 13.12-.08 2.04-.17 4.08-.36 6.11l-.6 6.57-.14 1.56-.05.72-.05.73c-.04 1.2-.06 2.4-.07 3.59 0 .53.41.98.95 1 .52.02 1-.41 1-.95.01-1.16.03-2.32.07-3.48.02-.5.07-1.01.1-1.52l.14-1.53.6-6.48c.17-2 .27-4.02.35-6.03l.22-6.55c.13-4.32.29-8.64.38-12.97.02-1.07 0-2.15 0-3.22a488.63 488.63 0 0 1 .1-6.31c.03-.98.1-1.96.16-2.93l.19-3.26c.05-1.02.14-2.03.21-3.05.07-1.08.14-2.15.23-3.23.1-1.02.16-2.04.26-3.06.1-1.07.18-2.15.25-3.23.06-1 .18-1.98.24-2.98.07-1.06.12-2.12.17-3.18a54.37 54.37 0 0 1 .51-4.83c.06-.34.12-.67.21-1 .21.14.42.28.64.4.62.36 1.34.54 2.02.72 1 .25 2.03.41 3.04.62 1.06.2 2.12.44 3.16.7 1.02.27 2.05.47 3.09.63 1.15.18 2.3.33 3.46.51.6.11 1.2.24 1.8.4.6.16 1.18.38 1.76.6.58.21 1.18.4 1.78.57.64.17 1.32.25 1.94.49l.05.07c.05.19.08.38.11.58.07.93-.02 1.89-.15 2.81-.15 1.08-.33 2.16-.5 3.24l-.23 1.5c-.08.49-.13.97-.19 1.45-.13 1.03-.25 2.06-.4 3.08-.04.22-.08.43-.1.65l-.46 2.58c-.18 1-.33 2.01-.49 3.02l-.57 3.41.04-.26-.29 1.77a143.49 143.49 0 0 1-1.24 6.05c-.23 1-.45 1.98-.64 2.98-.2 1.08-.3 2.2-.42 3.3-.19 1.7-.32 3.43-.59 5.14-.17.98-.38 1.94-.57 2.91a31.22 31.22 0 0 0-.48 3.3c-.09 1.01-.12 2.04-.2 3.06-.08 1-.2 2-.32 3-.1.99-.14 1.98-.22 2.98-.07.99-.17 1.97-.24 2.96-.06.98-.18 1.95-.26 2.92-.08 1-.12 2-.16 3.01-.04 1.1-.18 2.19-.25 3.28-.04.54-.06 1.08-.12 1.62-.06.6-.15 1.22-.16 1.83 0 .54.4 1 .95 1.01.52.02 1-.41 1-.95 0-.53.08-1.06.14-1.58.05-.49.09-.97.11-1.46.05-.94.15-1.87.23-2.8.05-.52.05-1.03.08-1.54a80.46 80.46 0 0 1 .33-4.47c.05-.49.07-.98.11-1.47l.12-1.42c.1-1 .13-2.02.22-3.03.08-.98.22-1.96.3-2.94.06-.52.11-1.05.14-1.57l.09-1.59c.06-.97.19-1.93.33-2.9.18-.96.4-1.91.57-2.88.1-.55.2-1.1.28-1.66.07-.5.13-1 .18-1.52.23-2.02.4-4.05.7-6.06.32-1.72.74-3.41 1.12-5.1.18-.8.32-1.6.47-2.4.18-.92.33-1.85.48-2.77l-.02.17.22-1.36c.28-1.61.54-3.23.8-4.84.37-2.14.75-4.28 1.02-6.44.12-1 .24-2 .4-3l.5-3.12.22-1.55c.06-.5.08-1 .09-1.5a7.26 7.26 0 0 0-.17-1.84 2.28 2.28 0 0 0-.8-1.24c-.17-.1-.33-.19-.52-.26-.3-.13-.64-.2-.97-.27a20.94 20.94 0 0 1-2.8-.82l-1.35-.47a16.6 16.6 0 0 0-1.46-.38c-.84-.18-1.7-.3-2.56-.42a42.64 42.64 0 0 1-4.64-.83l-1.3-.32c-.4-.1-.82-.19-1.23-.27-.88-.19-1.76-.35-2.64-.52a20.24 20.24 0 0 1-2.58-.69c-.43-.22-.81-.51-1.22-.77a1.85 1.85 0 0 0-.94-.31c-.16 0-.43.06-.54.14zM98.62 5.04l-.24.1a.98.98 0 0 0-.05 1.68c.13.08.3.14.48.15l.54.18.76.22c.55.15 1.09.28 1.64.39l1.8.27-.08.05c-.3.25-.55.54-.83.8-.28.27-.57.5-.88.73-.56.4-1.12.78-1.66 1.2-.5.35-.99.7-1.47 1.06l-1.64 1.18c-.28.2-.55.44-.8.68l-.8.71c-.45.43-.9.87-1.37 1.28l-.8.7-.7.52c-.35.26-.72.5-1.1.72-.4.23-.8.45-1.19.7-.46.3-.91.6-1.34.94-.4.32-.75.66-1.11 1.01-.69.67-1.4 1.31-2.1 1.96a98.3 98.3 0 0 0-2.23 2.06c-.84.82-1.65 1.66-2.5 2.48-.82.8-1.69 1.57-2.6 2.27a9.7 9.7 0 0 1-1.05.67c-.4.21-.83.4-1.24.6-.9.45-1.76.96-2.6 1.51l-1.2.78c-.42.26-.84.52-1.28.73-.9.44-1.82.84-2.72 1.28-1.89.91-3.77 1.82-5.68 2.67l-1.39.58-1.36.57-3.01 1.26c-1.9.8-3.8 1.61-5.64 2.56-.96.5-1.9 1.03-2.84 1.6-.88.53-1.73 1.11-2.58 1.7a42.4 42.4 0 0 1-2.32 1.5c-.73.43-1.5.8-2.25 1.18-.8.4-1.6.85-2.4 1.3l-1.13.6c-.34.18-.7.33-1.05.47-.88.33-1.77.63-2.63 1-.42.2-.83.43-1.23.66l-1.19.7c-.39.23-.77.47-1.18.67-.4.2-.82.38-1.23.56-.82.35-1.65.68-2.48 1.01l-2.34.9c-1.16.43-2.33.85-3.51 1.23-.66.2-1.31.44-1.95.7l-1.58.68c-.37.13-.74.25-1.13.36-.46.12-.94.21-1.42.32a.98.98 0 0 0-.71 1.18c.12.52.66.83 1.18.71.8-.17 1.62-.33 2.4-.62l1.27-.5 1.08-.48c1-.37 2-.68 3.01-1.03l1.53-.54 1.6-.62c.85-.32 1.7-.65 2.53-1 .8-.32 1.59-.64 2.37-1 .77-.35 1.5-.8 2.22-1.24a12.94 12.94 0 0 1 2.25-1.16c.94-.35 1.9-.67 2.8-1.08.47-.21.92-.48 1.37-.73l1.38-.75 1.32-.7c.43-.21.87-.42 1.3-.66.44-.24.89-.48 1.3-.75l1.37-.9c.9-.6 1.79-1.21 2.7-1.8.84-.53 1.7-1.03 2.59-1.49.93-.48 1.86-.95 2.82-1.38.98-.44 1.96-.86 2.94-1.28 1.95-.83 3.9-1.63 5.85-2.44.94-.4 1.87-.83 2.78-1.27l2.82-1.35c.9-.44 1.82-.86 2.73-1.28.88-.41 1.7-.94 2.5-1.47.84-.54 1.69-1.08 2.57-1.54.41-.22.84-.4 1.25-.61.43-.22.83-.44 1.22-.7 1.69-1.17 3.13-2.63 4.58-4.07.74-.74 1.48-1.48 2.25-2.19.36-.33.71-.66 1.08-.98a51.76 51.76 0 0 0 2.31-2.16c.4-.38.8-.73 1.23-1.05.64-.45 1.33-.84 2-1.23.43-.25.84-.53 1.23-.83.34-.25.68-.5 1-.78l.96-.84.88-.83.98-.9c.33-.3.68-.57 1.03-.83l1.75-1.27 1.36-.97 1.28-.91c.36-.27.72-.54 1.04-.86l.43-.45.58-.49.89-.75.06-.03.02-.01c.27-.08.51-.23.66-.47.16-.25.17-.51.13-.8-.05-.27-.27-.5-.5-.64-.13-.1-.3-.15-.45-.21a12.24 12.24 0 0 0-1.12-.2 47.5 47.5 0 0 1-2.23-.28c-.59-.1-1.17-.23-1.74-.4l-.92-.26-.43-.14c-.17-.06-.37-.12-.56-.12a.68.68 0 0 0-.24.04z" fill="#1B1B20"/><path fill-rule="evenodd" clip-rule="evenodd" d="M105.42 7.04c-.2.19-.27.41-.3.68-.09.68-.18 1.37-.22 2.06a332.09 332.09 0 0 0-.16 3.93l-.04 1.5c-.1.21-.16.48-.09.7.07.2.13.36.27.51.25.26.62.37.96.29a.98.98 0 0 0 .63-.48c.06-.09.1-.18.12-.28.03-.13.05-.24.05-.36 0-.35.02-.69.03-1.03a844.45 844.45 0 0 1 .16-4.46c.05-.78.14-1.55.24-2.32a.98.98 0 0 0-1.64-.74zM28.88 76.51c-.01.52.42 1 .95 1s.99-.4 1-.94a.98.98 0 0 0-.94-1c-.54 0-1 .4-1 .94zM35.31 75.34c-.01.52.42 1 .95 1s.99-.4 1-.94a.98.98 0 0 0-.94-1c-.54 0-1 .4-1 .94zM31.92 82.43l-.1.01h.1zm.25-.06l-.18.05h-1.06l-1.23.01c-.53.01-.98.4-1 .95-.02.52.41 1.01.95 1h1.67c.44 0 .89.01 1.3-.11.26-.08.47-.21.6-.43.14-.23.19-.5.13-.75a1 1 0 0 0-.95-.76.83.83 0 0 0-.23.04zM66.84 57.22c-.02.52.41 1 .95 1 .53 0 .98-.4 1-.95a.98.98 0 0 0-.95-1c-.53 0-.98.4-1 .95zM71.15 56.58c-.02.52.41 1 .94 1 .54 0 1-.4 1-.94a.98.98 0 0 0-.94-1c-.53 0-.99.4-1 .94zM64.86 61.44c-.45.25-.66.87-.39 1.33l.51.87c.24.4.5.83.9 1.1.32.23.69.37 1.04.51.28.12.56.24.86.3.2.04.41.08.62.1.26.03.5.01.76-.02a17 17 0 0 0 .97-.17c.31-.06.62-.13.92-.24.3-.12.63-.24.91-.41a1 1 0 0 0 .4-1.33c-.25-.45-.87-.66-1.33-.39-.15.1-.32.17-.48.24-.56.2-1.15.3-1.73.38-.15 0-.3 0-.45-.02a6.24 6.24 0 0 1-1.37-.54 2.2 2.2 0 0 1-.1-.11c-.26-.4-.48-.8-.72-1.2-.18-.32-.52-.51-.86-.51-.16 0-.31.03-.46.11zM105.8 33.48c0 .52.42 1.01.95 1.01s1-.4 1-.95a.98.98 0 0 0-.94-1c-.53 0-.99.4-1 .95zM112.84 33.08c-.02.52.41 1 .94 1s1-.4 1-.94a.98.98 0 0 0-.94-1c-.53 0-.99.4-1 .94zM104.25 40.81c.46.16.92.3 1.38.42 1.05.28 2.15.37 3.23.44 1.06.06 2.12.08 3.16-.18.22-.05.43-.13.64-.21a13.52 13.52 0 0 0 1.07-.45c-.25.56-.44 1.13-.68 1.69-.24.48-.5.93-.83 1.35-.27.3-.55.6-.86.85a5.23 5.23 0 0 1-2.57.9c-.4.03-.8.03-1.2 0-.36-.02-.72-.04-1.07-.08a4.04 4.04 0 0 1-.64-.2 4.57 4.57 0 0 1-.68-.43 4 4 0 0 1-.4-.43 4.3 4.3 0 0 1-.3-.57 4.48 4.48 0 0 1-.17-.68c-.04-.25-.1-.5-.13-.76-.04-.46-.07-.93-.04-1.4l.07-.2.02-.06zm10.21-1.89v.04-.04zm.86-1.05a.8.8 0 0 0-.32.05l-.36.14c-.3.16-.6.29-.88.47-.26.17-.52.35-.8.5a6.77 6.77 0 0 1-2.05.7 24.13 24.13 0 0 1-4.1-.22c-.55-.11-1.07-.26-1.6-.44l-.19-.07a1 1 0 0 0-.42-.6.97.97 0 0 0-1.12.07l-.03-.01c-.5-.18-1.07.16-1.22.65a.98.98 0 0 0 .22.95 2.74 2.74 0 0 0-.25 1.1c0 .46.02.94.06 1.4.05.48.14.94.22 1.4.09.47.3.92.52 1.33.51.92 1.42 1.56 2.37 1.94.49.2 1 .26 1.5.3.5.04.97.08 1.46.07a8.2 8.2 0 0 0 1.6-.2c.49-.1.96-.28 1.43-.46.5-.2.95-.49 1.37-.82.4-.31.73-.71 1.05-1.1.68-.83 1.09-1.8 1.48-2.8l.6-1.4c.19-.45.42-.92.5-1.4.05-.23.09-.47.02-.7a1.14 1.14 0 0 0-.47-.7 1.06 1.06 0 0 0-.59-.15zM21.62 101.86c-.02.53.41.98.94 1 .51.03 1.03.04 1.54.1.52.06 1.05.1 1.58.14 1 .08 2 .12 3.02.15 1.03.05 2.07.01 3.1 0 1.04-.02 2.07 0 3.11.03 2.08.04 4.17.1 6.25.17l1.5.03c.47 0 .96-.02 1.44-.04.97-.02 1.94-.14 2.91-.18a89.5 89.5 0 0 1 6.41-.02c1 .03 1.98.12 2.97.18 1.05.07 2.1.13 3.16.17 1.04.05 2.08.08 3.12.11 1 .04 2.01-.01 3.01-.01 2.1 0 4.2.06 6.3.1 1.06.03 2.12-.01 3.18-.02 1 0 2.01.01 3.02.04 1.1.02 2.19.07 3.28.06 1-.01 2-.04 3-.04 2.14.02 4.28.08 6.42.15l3.11.09c.55.02 1.1.04 1.65.08l1.44.1c1.97.15 3.94.23 5.92.28 1.01.03 2.03-.03 3.04-.04a100.64 100.64 0 0 1 4.8.09c.63.02 1.26.03 1.9 0a26.55 26.55 0 0 1 2.73-.02c.37.02.73.06 1.1.1.53.05.99-.45 1-.95a.98.98 0 0 0-.26-.7c-.19-.2-.42-.28-.69-.3-.53-.06-1.06-.12-1.6-.13-.48-.01-.97-.02-1.45 0s-.96.06-1.44.07c-.48.02-.98-.02-1.46-.03-1.99-.05-3.97-.1-5.95-.06-.48.01-.96.04-1.44.02a168.16 168.16 0 0 1-7.51-.38c-1.01-.08-2.03-.1-3.05-.12-2.11-.06-4.23-.14-6.35-.17a123.3 123.3 0 0 0-3.22-.02c-.51 0-1.03.01-1.54.03l-1.55-.02c-2.08-.06-4.16-.1-6.25-.06-.5 0-1.02.02-1.53.01l-1.61-.04a103.91 103.91 0 0 0-6.24-.06c-.52.01-1.03.02-1.54 0-.48 0-.96-.02-1.44-.04-2.12-.07-4.23-.18-6.34-.34a127.94 127.94 0 0 0-6.3-.13c-1.01.02-2.02.08-3.03.16-.99.07-1.98.1-2.98.13l-1.5-.03-1.45-.04-3.07-.09c-1.06-.03-2.12-.06-3.19-.07-1.05-.02-2.1 0-3.15.02a52.6 52.6 0 0 1-5.84-.27c-.3-.03-.61-.07-.93-.09l-1.05-.05h-.04a.99.99 0 0 0-.96.95z" fill="#1B1B20"/></svg>
