<svg width="150" height="110" fill="none" xmlns="http://www.w3.org/2000/svg"><mask id="a" mask-type="alpha" maskUnits="userSpaceOnUse" x="0" y="0" width="150" height="110"><path fill="#C4C4C4" d="M0 0h150v110H0z"/></mask><g mask="url(#a)"><path fill-rule="evenodd" clip-rule="evenodd" d="M65.56 24.6a.82.82 0 0 0-.58.22.79.79 0 0 0-.23.55c0 .15.04.27.11.4a.76.76 0 0 0-.03.22V33.7c-.02.82-.1 1.63-.19 2.45l-.11 1.05-.15 1.38c-.09.86-.12 1.72-.15 2.45-.03.92-.06 1.74-.11 2.57-.07.93-.1 1.7-.13 2.44a161 161 0 0 0-.07 4.98v.53c0 .68 0 1.39-.02 2.08 0 .46-.03.93-.06 1.38l-.06 1.01-.07 2.55a51.5 51.5 0 0 1-.1 2.14l-.02.4-.12 1.5-.08.98a85.8 85.8 0 0 1-.52 5.08 43.9 43.9 0 0 0-.25 2.37l-.08.79-.18 1.85-.02.12-.1 1-.05.33a27.99 27.99 0 0 0-.28 3.36l-.01.48-.03.73-.08 1.22-.02.4c-.05.66-.09 1.34-.16 2.01l-.12 1.38-.1 1.1a57.52 57.52 0 0 0-.23 4.5v.27a28.97 28.97 0 0 1-.16 2.45l-.05 1.23v.43l-.02.7a42.96 42.96 0 0 1-.14 2.05 34.23 34.23 0 0 1-.29 2.78l-.07.45-.05.43v.3l.02.1.01.1c.01.12.05.23.1.33.2.42.58.65.98.84.4.2.82.38 1.24.55.36.15.74.26 1.15.34.45.1.91.14 1.35.18a40.81 40.81 0 0 0 3.8.16l.36.01a63.42 63.42 0 0 0 2.11-.01l1.5-.12a53.9 53.9 0 0 1 3.52-.24c.94-.03 1.74-.07 2.54-.15l.72-.07a58.78 58.78 0 0 1 4.12-.33c1.5-.13 3.08-.2 4.8-.2.16 0 .3-.02.45-.04.18-.02.36-.1.54-.22a2.2 2.2 0 0 0 .85-1.63l.01-.15a12.68 12.68 0 0 0 .08-.86l.03-.76c.02-.55.05-1.11.1-1.66l.2-1.64.11-.93c.1-.78.17-1.58.24-2.35v-.03a69.9 69.9 0 0 0 .32-8.89V82c0-.66 0-1.35.03-2.02l.1-2.68c.02-.63.07-1.27.11-1.9l.05-.65.08-1.46.05-1.04.07-.97a60.16 60.16 0 0 0 .13-2.43l.06-1.5a113.18 113.18 0 0 0 .24-6.83l.01-.79.07-1.4.06-1.08c.02-.5.06-1 .1-1.48l.08-1.06c.05-.86.1-1.72.11-2.54.03-1.38.04-2.78.04-4.14v-.76-6.42c0-.3 0-.61.02-.92l.04-.6.04-.61a56.15 56.15 0 0 0 .08-1.2c.05-.67.13-1.35.21-2l.05-.42a29.4 29.4 0 0 0 .15-1.56l.07-.83.07-.65.2-1.92.15-.92.02-.12.09-.56.02-.14c.03-.2.06-.4.06-.6 0-.3-.04-.58-.11-.89a2.66 2.66 0 0 0-.2-.5 1.4 1.4 0 0 0-.63-.6 2.61 2.61 0 0 0-.92-.24 54.13 54.13 0 0 0-1.77-.06h-.08c-.33 0-.65.02-1.03.05-.8.05-1.63.1-2.45.12a146.88 146.88 0 0 1-2.72.03c-.7 0-1.4-.02-2.17-.07l-1.35-.12-1.13-.11a111.6 111.6 0 0 0-4.71-.13h-.51a11.41 11.41 0 0 1-1.95-.15l-1.27-.07a9.34 9.34 0 0 1-.86-.08l-.34-.05a15.6 15.6 0 0 0-1.06-.08l-.4-.02H68.28a5.53 5.53 0 0 1-.6-.04 23.8 23.8 0 0 0-1.53-.16h-.33a.78.78 0 0 0-.27-.04z" fill="#FFD000"/><path fill-rule="evenodd" clip-rule="evenodd" d="M77.13 21.3l.11.01-.11-.01zm-12.6-2.45c-.83.01-1.68.02-2.5.16-.17.02-.33.07-.49.12-.24.08-.49.17-.7.3-.15.11-.3.2-.45.32l-.09.07c-.08.06-.13.16-.2.24-.05.08-.1.23-.14.3a6.13 6.13 0 0 0-.3 1.48c-.05.38-.06.76-.1 1.14-.04.37-.1.73-.12 1.1l-.08 1.26c-.04.38-.09.76-.1 1.14l-.08 1.17-.1 1.27c-.04.4-.04.79-.06 1.18-.05.84-.12 1.67-.13 2.5a76.6 76.6 0 0 1-.08 2.53c-.04.84-.1 1.67-.1 2.5 0 .91-.02 1.82-.05 2.73-.02.83-.07 1.67-.13 2.5-.05.8-.06 1.59-.1 2.38-.03.76-.1 1.5-.16 2.26-.06.76-.1 1.52-.19 2.28-.07.7-.13 1.4-.22 2.1a33.51 33.51 0 0 0-.59 5.34c-.02.42-.05.83-.05 1.24a50.19 50.19 0 0 0 .12 4.03c.04.86.04 1.73.04 2.6l-.03 2.75c-.01.9-.04 1.79-.08 2.68-.04.92-.1 1.85-.12 2.77-.02.87-.05 1.74-.09 2.6a58.8 58.8 0 0 0-.07 2.58c0 1.85-.01 3.7-.09 5.56-.03.86-.1 1.73-.18 2.59-.07.9-.12 1.8-.2 2.71l-.06 1.32-.06 1.24c-.02.9-.03 1.8-.1 2.7-.03.58-.08 1.17-.13 1.76-.05.58-.08 1.15-.11 1.73-.04.6-.06 1.22-.08 1.82-.03.53-.07 1.05-.13 1.57-.05.37-.12.74-.18 1.1-.04.22-.04.42.08.61a.8.8 0 0 0 1.07.28c.16-.1.33-.28.36-.47a21.44 21.44 0 0 0 .35-2.83c.03-.43.03-.86.06-1.3l.08-1.38c.03-.45.05-.9.09-1.34.04-.44.08-.88.1-1.32.06-.88.08-1.75.1-2.63.03-.92.09-1.85.13-2.77l.1-1.33.08-1.2a65 65 0 0 0 .27-5.33c.03-1.8 0-3.6.08-5.4.04-.93.08-1.85.1-2.77.02-.86.07-1.71.11-2.57.08-1.8.1-3.61.12-5.42 0-.89.02-1.78-.03-2.66a76.84 76.84 0 0 1-.13-4.28c0-.5.04-1.02.06-1.52.02-.5.06-1 .1-1.5.03-.48.1-.94.15-1.41.06-.4.12-.82.2-1.22.07-.46.14-.92.19-1.39l.26-2.65.1-1.39.1-1.31c.07-.9.08-1.8.13-2.7l.14-2.53c.03-.9.05-1.81.06-2.72 0-.43 0-.87.02-1.3 0-.4.04-.8.06-1.21l.09-2.52c0-.4 0-.82.03-1.23l.08-1.29.06-1.22c.02-.41.06-.82.1-1.24.06-.77.09-1.55.17-2.32.04-.43.08-.86.1-1.3.02-.18.02-.37.03-.56.01-.19.04-.37.06-.55l.09-.75c.02-.23.02-.47.05-.71.06-.34.12-.68.22-1.01l.33-.2a5.56 5.56 0 0 1 .75-.2c.77-.09 1.56-.09 2.34-.1.82 0 1.62.11 2.43.14 1.3.05 2.61.05 3.91.05h1.73a7.46 7.46 0 0 1 1.5.2c.3.09.62.18.94.25.34.09.7.15 1.05.19l.9.09c.35.04.7.1 1.05.13.36.03.71.04 1.07.08.68.1 1.35.16 2.04.18.6.02 1.22-.01 1.83.05.6.06 1.18.12 1.78.14l.84.02c.26 0 .5-.02.75-.07l.34-.07c.25-.02.5-.03.74-.07a.79.79 0 0 0 .19-1.43.8.8 0 0 0-.55-.1 8.9 8.9 0 0 0-.72.08l-.47.09c-.26.02-.52 0-.78 0l-.67-.03c-.53-.03-1.05-.1-1.57-.14-.29-.02-.58-.02-.87-.02l-.77-.01c-.53-.02-1.06-.05-1.58-.11l-.62-.09-.54-.03c-.3-.02-.59-.05-.88-.09l-.74-.1c-.24-.02-.48-.03-.71-.06a7.6 7.6 0 0 1-.91-.2l-1.23-.3a9.52 9.52 0 0 0-1.34-.14h-1.17l-2.33-.01a37.33 37.33 0 0 1-3.73-.15 9.35 9.35 0 0 0-.83-.03h-.4z" fill="#1B1B20"/><path fill-rule="evenodd" clip-rule="evenodd" d="M87.27 20.62c-.03.88-.05 1.77-.06 2.66 0 .42 0 .85-.02 1.28l-.06 1.3a49 49 0 0 1-.18 2.62c-.1.87-.17 1.75-.23 2.62l-.11 1.25-.1 1.31c-.07.89-.18 1.77-.27 2.65l-.15 1.3-.13 1.2c-.1.83-.18 1.66-.27 2.5a85.97 85.97 0 0 1-.36 2.74l-.19 1.35.03-.2-.08.6-.04.28-.03.16v.01a1.9 1.9 0 0 0-.04.28v.01l-.2 1.4-.15 1.32-.28 2.4c-.1.85-.21 1.69-.28 2.54-.1 1.3-.1 2.6-.1 3.91a33.5 33.5 0 0 1-.26 3.86l.03-.2a147.65 147.65 0 0 0-.45 3.8c-.07.84-.08 1.69-.09 2.54-.02 1.69-.01 3.38-.02 5.08V89.8l-.08 1.2c-.04.8-.1 1.61-.06 2.42.01.36.05.72.07 1.08a26.02 26.02 0 0 1 .02 2.2c-.03.35-.07.7-.08 1.05-.08 1.53-.06 3.07-.06 4.6 0 .43.36.78.79.78a.8.8 0 0 0 .78-.78v-2.52c.01-.81.02-1.63.08-2.44.03-.38.08-.75.1-1.12l-.03-1.2c-.03-.79-.14-1.58-.11-2.38.02-.83.08-1.66.12-2.5.05-.83.04-1.67.04-2.5v-5.1-10.22l.01-4.27.06-2.13c.04-.68.1-1.37.19-2.05a153.12 153.12 0 0 0 .19-1.38c.12-.89.21-1.77.27-2.66.05-.88.05-1.76.06-2.63.01-.87.03-1.74.07-2.6.04-.84.14-1.68.25-2.51l.51-4.32.13-.87.02-.18a.78.78 0 0 0 .03-.19l.07-.52.16-1.13-.03.2.15-1.1c.12-.88.25-1.76.35-2.64l.28-2.53c.1-.82.17-1.65.27-2.47.1-.87.2-1.73.27-2.6.14-1.72.26-3.45.43-5.17.1-.89.15-1.77.2-2.66l.06-1.27c.02-.43.02-.87.02-1.3 0-.93.03-1.86.06-2.78.01-.43-.37-.79-.79-.79a.8.8 0 0 0-.78.79zM64.41 68.61l-.02.18.02-.18zm2.24-49.17a.83.83 0 0 0-.23.55c-.1.86-.18 1.72-.2 2.58-.03.86-.04 1.73-.04 2.6v5.22c0 .86.02 1.73-.02 2.6-.04.88-.1 1.76-.2 2.64l-.15 1.24c-.05.43-.09.87-.12 1.3l-.06 1.25-.08 1.28c-.1 1.72-.13 3.43-.13 5.15l-.01 5.1c0 .88.01 1.76-.03 2.64l-.07 1.27-.06 1.28c-.03.39-.08.78-.1 1.17-.04.44-.06.87-.07 1.31-.02.43-.07.86-.1 1.3l-.07 1.2c-.02.66-.03 1.32-.07 1.98-.05.63-.08 1.25-.14 1.88-.07.64-.12 1.28-.16 1.91-.04.65-.08 1.29-.15 1.93-.11.78-.2 1.57-.3 2.35-.09.8-.16 1.6-.27 2.41-.08.59-.18 1.17-.3 1.75a64.52 64.52 0 0 0-.61 4.6c-.08.84-.2 1.68-.26 2.52-.03.4-.04.8-.08 1.21l-.11 1.17-.07 1.23c-.01.42-.07.83-.1 1.25l-.04.35c-.06.38-.1.77-.15 1.15-.04.37-.07.74-.12 1.1-.04.35-.08.7-.1 1.04l-.15 1.21.03-.2-.3 1.61c-.06.33-.1.66-.14.99l-.07.7c-.06.43-.14.86-.18 1.29-.02.23-.03.47-.03.7 0 .23-.03.44-.05.66-.04.26-.08.53-.1.8-.02.22-.02.44-.05.66-.06.37-.13.74-.16 1.11-.02.28-.02.56-.05.84-.05.25-.14.5-.19.75-.03.21-.03.4.08.6a.8.8 0 0 0 1.08.28c.16-.1.32-.27.36-.47.03-.2.11-.39.15-.58.05-.23.08-.45.1-.68l.03-.57.03-.39.1-.5c.03-.22.05-.44.06-.67a13.23 13.23 0 0 1 .16-1.4c.02-.18.02-.35.02-.52.01-.29.02-.58.06-.87l.15-1.02.1-.9c.07-.49.17-.97.25-1.45l.15-.93.11-.87.07-.74.08-.7.16-1.49a40.45 40.45 0 0 0 .32-3.72c.03-.4.09-.78.11-1.17.05-.87.12-1.73.22-2.59l.3-2.55.02-.2.17-1.24c.08-.58.2-1.15.3-1.73.12-.7.22-1.39.3-2.08.07-.65.13-1.31.22-1.96l.2-1.76c.07-.47.12-.94.16-1.4l.07-1.18c.05-.82.15-1.65.2-2.47l.1-1.27.04-1.28c.02-.84.08-1.68.15-2.52l.06-1.26.1-1.27c.05-.4.06-.8.08-1.2l.07-1.29c.02-.45.05-.9.05-1.37v-3.88c0-1.68 0-3.35.03-5.03.01-.88.04-1.75.09-2.63l.07-1.24.07-1.32c.03-.85.13-1.7.23-2.54a41 41 0 0 0 .23-2.56c.05-.88.05-1.75.05-2.63v-2.64-4.06l.05-2.04c.02-.71.12-1.42.2-2.13.01-.2-.1-.42-.24-.55a.79.79 0 0 0-1.11 0zM73.97 22.34c0 .65-.05 1.3-.13 1.94l.01-.08v.08l-.03.15-.06.43-.06.63c-.03.4-.08.78-.13 1.17l-.1 1.16c-.03.4-.08.8-.1 1.2-.02.39-.06.76-.1 1.14-.04.41-.1.83-.12 1.24l-.1 1.29c-.07.83-.07 1.66-.13 2.5l-.1 1.3-.05 1.3c-.03.8-.1 1.61-.1 2.42v2.54c0 1.33 0 2.65-.04 3.97-.03 1.26-.12 2.5-.28 3.75a55.06 55.06 0 0 0-.51 5.09c-.04.88-.1 1.77-.13 2.65-.02.41-.02.82-.02 1.23l-.03 1.31c-.02.87-.07 1.73-.12 2.59-.04.82-.03 1.64-.04 2.46-.02.9-.04 1.8-.08 2.71-.03.83-.09 1.66-.09 2.5 0 1.77 0 3.53-.06 5.3-.02.84-.06 1.67-.13 2.5-.07.88-.12 1.75-.17 2.63-.05.86-.07 1.73-.1 2.6-.02.85-.09 1.7-.14 2.55-.06.87-.07 1.73-.14 2.59l-.2 2.68-.12 1.27-.12 1.3-.22 2.54-.1 1.22-.09 1.23c-.03.86-.11 1.72-.1 2.58 0 .4.02.8.03 1.19a.8.8 0 0 0 .78.78c.42 0 .8-.35.79-.78l-.03-1.4c0-.43.03-.85.05-1.26l.06-1.25.1-1.29.21-2.49.12-1.33.1-1.16c.1-.9.15-1.8.22-2.7.06-.86.14-1.7.17-2.55.04-.9.1-1.79.16-2.68l.09-2.55.14-2.65c.02-.43.06-.85.1-1.28l.08-1.31c.09-1.7.08-3.4.09-5.1 0-.86 0-1.71.04-2.57.05-.87.08-1.73.1-2.6.03-.88.03-1.76.05-2.64 0-.86.07-1.71.1-2.57.04-.86.06-1.71.07-2.57 0-.43.01-.87.03-1.3l.07-1.3a51.83 51.83 0 0 1 .42-5.13l.18-1.32a42.3 42.3 0 0 0 .25-3.86c.04-1.73.03-3.46.03-5.19v-1.22l.06-1.24c.05-.83.06-1.66.12-2.49.06-.86.12-1.72.15-2.59l.08-1.27.1-1.2c.04-.54.11-1.08.16-1.62l.04-.72.08-.81c.05-.52.08-1.04.14-1.56l.16-1.52.04-.27a.8.8 0 0 0 .02-.17l.01-.08-.01.08c.1-.7.16-1.41.15-2.12a.8.8 0 0 0-.79-.78c-.42 0-.79.35-.78.78zM80.43 29.42v0zm-1.48-.63l-.01.04v-.04zm.84-7.35c-.1.4-.13.8-.18 1.21l-.09.63c-.02.18-.02.37-.03.55-.02.34-.06.68-.1 1.01a16 16 0 0 0-.1 1.01l-.11 1.03c-.09.65-.16 1.3-.24 1.96a.75.75 0 0 0-.02.15 35.72 35.72 0 0 0-.26 2.56l-.11 1.3c-.04.42-.05.85-.08 1.27l-.11 1.26c-.03.4-.04.81-.06 1.22l-.1 1.18c-.03.43-.04.87-.06 1.3-.05.88-.15 1.75-.2 2.62-.02.43-.06.85-.1 1.27-.03.42-.04.83-.05 1.25-.03.84-.12 1.68-.14 2.52-.02.4 0 .8 0 1.2v9.09c.02 1.74.02 3.49.2 5.22.09.83.19 1.65.24 2.48.06.9.12 1.79.12 2.68v5.15a116.6 116.6 0 0 1-.12 5.33c-.02.45-.05.91-.06 1.37-.02.44-.03.89-.03 1.33-.02.85-.04 1.7-.08 2.54-.04.88-.11 1.75-.14 2.63l-.1 2.7a46.77 46.77 0 0 0-.05 2.75c0 .93 0 1.87-.02 2.81-.02.84-.04 1.7-.1 2.53-.03.44-.05.88-.1 1.32l-.14 1.4-.18 2.25c-.05.8-.05 1.6-.07 2.4 0 .43.37.78.79.78a.8.8 0 0 0 .78-.78c.02-.89.03-1.77.09-2.66.05-.88.13-1.77.22-2.65a45.3 45.3 0 0 0 .29-5.33l.02-2.79v-1.21l.06-1.34c.04-.93.06-1.87.11-2.8l.14-2.6.06-2.55c.01-.93.08-1.85.12-2.77.07-1.73.08-3.46.08-5.19v-2.74c0-.85.02-1.7 0-2.56-.03-.86-.1-1.73-.16-2.6-.08-.85-.19-1.7-.26-2.55-.07-.85-.09-1.71-.11-2.57-.02-.87-.03-1.75-.03-2.62v-7.82c0-.83-.02-1.65.03-2.48.06-.84.1-1.68.13-2.53.01-.4.06-.81.09-1.22l.08-1.3.12-1.29.07-1.32c.03-.8.13-1.6.16-2.4.02-.42.04-.83.08-1.23.03-.42.08-.84.1-1.26.03-.43.05-.86.09-1.28l.1-1.28a62.8 62.8 0 0 1 .19-1.72v-.03l.01-.07c.03-.13.03-.27.05-.4l.06-.46.19-1.59c.06-.51.09-1.03.15-1.55l.11-.95.07-1.02.12-.88.09-.46a.8.8 0 0 0-.75-.99c-.35 0-.69.23-.77.58z" fill="#1B1B20"/><path fill-rule="evenodd" clip-rule="evenodd" d="M74.31 19.6a.84.84 0 0 0-.36.47c-.12.32-.13.66-.13 1v2.27a.8.8 0 1 0 1.57 0v-1.38-.67-.56l.08-.24c.07-.19.02-.44-.08-.6a.8.8 0 0 0-1.08-.29zM59.24 31.84c0 .2.08.4.23.55.15.15.34.22.56.23a61.7 61.7 0 0 0 3.95.17l1.24.07 2.47.13c.81.06 1.62.1 2.43.12.81.03 1.62.1 2.43.14.8.05 1.6.07 2.4.13.8.06 1.6.1 2.4.13.39 0 .78.02 1.17.04l1.15.09a41.58 41.58 0 0 0 3.33.09h.59c.17 0 .35.02.52.04.3.04.62.09.93.1a19.26 19.26 0 0 0 2 .05h1.02c.22-.03.4-.08.56-.24a.78.78 0 0 0-.56-1.33c-.3.03-.62 0-.93 0a79.4 79.4 0 0 1-1.9-.03c-.3-.01-.58-.05-.87-.08a8.52 8.52 0 0 0-1.04-.08h-1.29c-.8-.01-1.61-.04-2.42-.1l-1.14-.08-1.2-.04c-.79-.02-1.58-.07-2.36-.13-.8-.06-1.62-.08-2.42-.13-.81-.04-1.62-.1-2.43-.13s-1.63-.07-2.44-.13l-2.47-.13-1.17-.07-1.3-.04a62.02 62.02 0 0 1-2.7-.13c-.4 0-.74.4-.74.79zM59.24 53.14a.8.8 0 0 0-.78.78c0 .42.36.79.78.78 1.7-.03 3.38-.07 5.06.08.84.07 1.67.15 2.51.19.8.03 1.62.07 2.43.04.43-.02.86-.03 1.28-.06l1.27-.1c.84-.06 1.68-.11 2.52-.14.83-.02 1.66-.05 2.48-.01.78.03 1.55.1 2.32.13.95.03 1.91.03 2.87.03H84.37c.13 0 .3.01.42-.03a.8.8 0 0 0 .55-.55.78.78 0 0 0 0-.41c-.05-.18-.18-.4-.36-.47-.09-.04-.17-.08-.26-.1a.74.74 0 0 0-.41 0h-.74l-3.12-.01c-.76-.01-1.52-.02-2.27-.07-.79-.05-1.57-.11-2.35-.1-.82 0-1.65.02-2.46.07-.84.04-1.67.1-2.5.17-.86.06-1.73.1-2.6.09a43.6 43.6 0 0 1-2.43-.1c-1.08-.08-2.16-.21-3.25-.24h-.93l-2.42.03zM62.2 71.74l.06.01h-.06zm-4.58-.33a.78.78 0 0 0 0 1.1c.16.16.34.21.55.23l.8.09c.75.1 1.5.21 2.24.34.87.15 1.75.21 2.63.26 1.62.08 3.24.08 4.86.08h2.55c.8 0 1.6.07 2.4.15.8.1 1.6.15 2.4.18.82.03 1.63.02 2.44.08.51.04 1.03.08 1.54.1l.7.03.66.07c.28.04.55.1.83.17.31.08.62.17.95.22a15.91 15.91 0 0 0 1.7.14c.22.06.42.02.61-.08a.79.79 0 0 0 .32-.3.78.78 0 0 0-.47-1.16c-.3-.06-.61-.03-.92-.05-.27-.01-.55-.03-.82-.06-.35-.06-.7-.15-1.04-.24a9.26 9.26 0 0 0-1.33-.23c-.39-.04-.77-.05-1.16-.07l-1.22-.08c-.36-.02-.74-.06-1.1-.07l-1.25-.02c-.83-.03-1.66-.07-2.49-.15-.4-.04-.81-.1-1.22-.13l-1.14-.06h-2.55c-1.62 0-3.24 0-4.86-.07-.71-.03-1.43-.08-2.14-.15-.58-.09-1.16-.2-1.74-.28a49.49 49.49 0 0 0-2.22-.28c-.19 0-.39.11-.51.24zM56.45 92.45c0 .44.36.77.79.79.84.02 1.68.04 2.52.1.82.06 1.65.1 2.47.12 1.66.05 3.3.26 4.96.34 1.15.06 2.3.06 3.47.07a21.04 21.04 0 0 1 3.53.28l-.21-.03c.52.08 1.04.15 1.56.2.45.05.9.07 1.36.13.47.06.93.11 1.4.14.44.03.88.01 1.32.06a14.2 14.2 0 0 0 2.16.17h.25l.47.01c.2.03.38.02.57-.08a.79.79 0 0 0-.19-1.43c-.36-.07-.74-.07-1.1-.07a12.45 12.45 0 0 1-1.5-.07l-.61-.09c-.23-.03-.45-.03-.67-.03-.47-.02-.95-.05-1.42-.1-.45-.04-.9-.11-1.36-.14-.42-.03-.83-.07-1.24-.12a27.55 27.55 0 0 0-4.5-.4h-.38c-1.65-.01-3.3-.05-4.94-.21-.64-.06-1.28-.1-1.92-.14-.66-.05-1.32-.06-1.98-.1-.67-.02-1.34-.06-2.01-.11l-1-.04c-.34 0-.67-.02-1.01-.03h-.03a.79.79 0 0 0-.76.78zM67.4 13.19a.76.76 0 0 0-.36.47c-.06.3-.09.59-.1.89v.7a81.35 81.35 0 0 1-.08 2.8c-.03.49-.08.97-.14 1.46-.02.2.1.42.23.55a.79.79 0 0 0 1.12 0l.12-.16c.07-.12.1-.25.1-.4.05-.44.1-.9.13-1.35a59.34 59.34 0 0 0 .09-2.8c0-.4-.01-.8.02-1.19l.02-.09a.82.82 0 0 0-.08-.6.79.79 0 0 0-1.07-.28z" fill="#1B1B20"/><path fill-rule="evenodd" clip-rule="evenodd" d="M67.68 7.82l-.2.02a.79.79 0 0 0-.58.76c0 .2.08.4.23.55.13.13.36.25.55.23.42-.05.84-.06 1.25-.02.2.03.4.1.59.16.2.1.4.22.6.36l.25.24c.12.18.22.36.3.56.09.22.15.44.19.66a4.2 4.2 0 0 1-.22 1.57c-.1.19-.2.36-.33.53l-.2.2-.2.11c-.19.07-.38.11-.59.15a5.63 5.63 0 0 1-.8 0c-.24-.04-.47-.1-.7-.18a5.58 5.58 0 0 1-.94-.56 3.9 3.9 0 0 1-.5-.47l-.1-.16a1.7 1.7 0 0 1-.04-.2 3 3 0 0 1 0-.38c.04-.24.12-.47.2-.7l.38-.82c.1-.2.14-.39.08-.6a.79.79 0 0 0-.97-.55c-.18.05-.39.18-.47.36-.2.46-.42.92-.6 1.4-.16.37-.21.78-.2 1.18 0 .42.11.82.32 1.2.08.15.21.3.33.43l.22.21c.19.18.4.33.6.48a4.54 4.54 0 0 0 4.28.69 2.55 2.55 0 0 0 1.06-.74c.14-.17.27-.35.4-.54.12-.2.2-.41.3-.63.1-.26.15-.55.19-.83.05-.35.11-.72.08-1.08-.03-.36-.1-.7-.2-1.05-.11-.32-.27-.63-.44-.92-.13-.2-.29-.4-.46-.57-.15-.14-.32-.26-.48-.38A4.27 4.27 0 0 0 69.9 8a3.58 3.58 0 0 0-1.43-.23c-.27 0-.53.02-.8.05z" fill="#1B1B20"/><path fill-rule="evenodd" clip-rule="evenodd" d="M66.35 6.7c-.4.11-.69.56-.55.97.17.51.36 1.03.52 1.55l.51 1.8a.8.8 0 0 0 .97.55.79.79 0 0 0 .55-.96l-.52-1.8c-.15-.53-.34-1.04-.52-1.56a.81.81 0 0 0-.36-.47.8.8 0 0 0-.6-.08zM78.19 15.13L78 16.15l-.15.93c-.12.79-.23 1.58-.33 2.38-.03.2.1.42.23.55a.79.79 0 0 0 1.1 0c.05-.05.1-.1.13-.16.07-.12.1-.25.11-.4l.13-.98c.07-.47.13-.95.21-1.42l.12-.68c.05-.28.08-.55.14-.83a.81.81 0 0 0-.08-.6.79.79 0 0 0-.66-.38c-.35 0-.7.22-.77.57z" fill="#1B1B20"/><path fill-rule="evenodd" clip-rule="evenodd" d="M78.73 13.74l.06.04a.62.62 0 0 1-.06-.04zm.03 0l.09.03a1.07 1.07 0 0 1-.1-.04zm-.13-.11zm1.3-2.18c.16.03.32.08.49.13l.18.1.1.1c.05.08.1.15.13.23.06.16.1.31.14.48v.43c-.03.17-.07.33-.13.49l-.08.14-.14.14-.18.1c-.06.03-.12.04-.17.05-.39.03-.77 0-1.15-.04a3.24 3.24 0 0 1-.4-.09l.01-.35c.1-.52.26-1.01.42-1.5a.68.68 0 0 0 .03-.14l.1-.09.21-.13.2-.05h.23zm-1.27-1.28c-.17.09-.32.21-.46.33l-.3.27a.75.75 0 0 0-.23.58.8.8 0 0 0-.04.08c-.12.4-.26.8-.35 1.2a5.78 5.78 0 0 0-.14.93 2.09 2.09 0 0 0 .25 1.01 1.5 1.5 0 0 0 .66.55c.16.07.32.13.5.17a7.41 7.41 0 0 0 2.04.08c.34-.06.65-.2.93-.4a2.24 2.24 0 0 0 .86-1.2c.17-.55.21-1.11.1-1.67a2.64 2.64 0 0 0-1-1.71 3.14 3.14 0 0 0-1.73-.5h-.02c-.38 0-.74.12-1.07.28zM84.21 16.18a.83.83 0 0 0-.23.55c-.02.29-.01.57 0 .86 0 .3 0 .59.02.88a.8.8 0 0 0 .78.79c.42 0 .8-.36.79-.79l-.02-.88c-.01-.29-.02-.57 0-.86a.79.79 0 0 0-1.34-.55zM62.64 16.77a.8.8 0 0 0-.47.36l-.08.19a.8.8 0 0 0 0 .41c.06.4.15.78.26 1.16.12.4.26.79.4 1.18.06.2.17.36.36.47.18.1.4.13.6.08.4-.11.69-.56.55-.96-.13-.38-.27-.75-.38-1.12-.12-.4-.21-.8-.27-1.22-.03-.2-.2-.38-.36-.47a.8.8 0 0 0-.6-.08zM72.47 15.9c-.16.1-.33.28-.36.47l-.25 1.48-.21 1.71c-.03.2.1.42.23.55a.8.8 0 0 0 1.1 0l.13-.15c.07-.13.1-.26.1-.4l.13-1.02.1-.74.18-1.02a.84.84 0 0 0-.08-.6.8.8 0 0 0-1.07-.28zM50.05 10.93c-.41 0-.82.05-1.23.1-.47.05-.93.13-1.39.22-.78.16-1.55.34-2.33.52-.75.17-1.5.39-2.24.63-.42.14-.83.33-1.23.53-.38.19-.73.42-1.1.65a7.61 7.61 0 0 0-1.94 1.64 9.9 9.9 0 0 0-1.47 2.18 8.72 8.72 0 0 0-1.1 4.9c.02.4.05.8.1 1.2.04.45.12.9.29 1.3a5.9 5.9 0 0 0 1.5 2.24c.35.32.7.62 1.07.9.3.24.62.46.93.69.3.22.59.44.9.64a5.53 5.53 0 0 0 1.73.73c.24.07.5.1.74.13.4.06.78.06 1.17.04l1.16-.11a16.18 16.18 0 0 1 1.34-.07.8.8 0 0 0 .78-.78c0-.42-.35-.8-.78-.78-.33 0-.67 0-1 .03l-.93.1-.88.06a4.6 4.6 0 0 1-1.9-.36A4.95 4.95 0 0 1 41 27.5c-.39-.3-.79-.57-1.18-.87a9.25 9.25 0 0 1-1.3-1.22 6.7 6.7 0 0 1-.6-1.05 3.17 3.17 0 0 1-.24-.92c-.1-.89-.14-1.8-.05-2.68a9.44 9.44 0 0 1 1.85-4.14 6.15 6.15 0 0 1 1.27-1.27c.65-.48 1.34-.91 2.08-1.25.91-.37 1.86-.62 2.82-.84.5-.11 1.01-.24 1.52-.34.5-.1 1.01-.22 1.52-.3.74-.09 1.47-.15 2.2-.07.44.06.86.16 1.27.31.22.1.42.22.62.36.12.1.23.22.34.34.13.18.26.36.37.56.04.11.09.23.12.35a16.96 16.96 0 0 1 .33 1.63c.05.42.07.85.09 1.27.01.41 0 .82-.04 1.23l-.1.6c-.05.25-.08.5-.12.76-.08.5-.2 1-.39 1.47-.2.45-.4.9-.56 1.36-.15.43-.28.87-.44 1.3a.79.79 0 0 0 1.15.88.83.83 0 0 0 .37-.46c.22-.6.39-1.21.63-1.8.16-.39.34-.77.48-1.16.14-.39.22-.8.28-1.2l.2-1.2a9.46 9.46 0 0 0 .08-2.47A13.58 13.58 0 0 0 55 13.7a7.29 7.29 0 0 0-.19-.43 9.1 9.1 0 0 0-.63-.87 3.98 3.98 0 0 0-1.7-1.09 7.47 7.47 0 0 0-2.41-.38h-.02z" fill="#1B1B20"/><path fill-rule="evenodd" clip-rule="evenodd" d="M51.75 24.58a.76.76 0 0 0-.23.55c.03.38.11.74.17 1.11l.08.49.1.44c.1.3.16.6.24.9.03.14.05.29.09.43.03.17.08.33.13.49l.25.85c.1.27.18.55.27.82l.24.75c-.4-.24-.82-.48-1.25-.69-.41-.2-.84-.37-1.26-.57l-.58-.29c-.27-.13-.54-.24-.8-.35l.1.04c-.59-.24-1.18-.45-1.79-.63a.8.8 0 0 0-.96.54.8.8 0 0 0 .54.96 18.9 18.9 0 0 1 1.84.67l-.19-.08c.32.13.62.28.93.43.32.16.64.3.97.45.66.3 1.32.63 1.93 1.04.28.18.55.39.85.53l.28.12c.14.05.33.04.47 0a.91.91 0 0 0 .58-.45c.25-.42.17-.95.07-1.4-.08-.36-.2-.7-.31-1.05l-.34-1.04-.33-1.07c-.11-.38-.18-.77-.28-1.16l-.13-.53-.15-.57-.1-.64-.08-.45v-.09a.82.82 0 0 0-.24-.55.79.79 0 0 0-1.1 0zM41.77 19.29c0 .42.36.78.79.78a.8.8 0 0 0 .78-.78.8.8 0 0 0-.78-.79.8.8 0 0 0-.79.79zM44.58 17.6c0 .43.36.79.79.79a.8.8 0 0 0 .78-.79.8.8 0 0 0-.78-.78.8.8 0 0 0-.79.78zM47.1 21.44c-.28.31-.52.66-.84.94l-.15.1a2.2 2.2 0 0 1-.23.05h-.19a2.58 2.58 0 0 1-.34-.1c-.27-.13-.51-.3-.75-.49h-.02l-.16-.13a.78.78 0 0 0-1.18.68c0 .18.08.43.23.55.34.26.68.54 1.06.74a3 3 0 0 0 1.31.32 2.44 2.44 0 0 0 1.76-.83c.21-.23.4-.49.61-.72a.81.81 0 0 0 .23-.56.78.78 0 0 0-.8-.78c-.2 0-.4.07-.54.23z" fill="#1B1B20"/><mask id="b" mask-type="alpha" maskUnits="userSpaceOnUse" x="90" y="5" width="23" height="28"><path fill-rule="evenodd" clip-rule="evenodd" d="M90.78 5h22.1v27.4h-22.1V5z" fill="#fff"/></mask><g mask="url(#b)"><path fill-rule="evenodd" clip-rule="evenodd" d="M98.28 26.38l-.06.08.06-.08zm2.3-19.82a11.18 11.18 0 0 1 2.51.3c.36.1.7.21 1.05.35.47.21.92.47 1.35.75.41.27.8.57 1.2.88l-.02-.01c.56.42 1.1.86 1.61 1.34.47.45.89.95 1.29 1.46.38.5.76 1.03 1.03 1.6l.18.5a22.32 22.32 0 0 1 .39 1.96 13.73 13.73 0 0 1 .05 3.64 7.76 7.76 0 0 1-.35 1.35c-.11.23-.23.43-.37.64-.16.19-.33.37-.52.54-.22.2-.46.39-.69.58-.45.39-.88.8-1.34 1.18-.26.18-.53.34-.82.48a5.5 5.5 0 0 1-1.08.28c-.77.09-1.53.13-2.3.15-.79.02-1.56-.01-2.33-.1a9.86 9.86 0 0 1-1.75-.43c-.18-.09-.35-.21-.55-.24a.8.8 0 0 0-.41 0 .84.84 0 0 0-.29.1c-.13.08-.26.18-.36.3-.22.25-.42.51-.62.77l-.76.97-.51.68c-.28.35-.56.7-.87 1.02-.31.33-.64.65-.94 1-.07.1-.15.18-.22.26l.06-.2.26-.85.24-.97c.13-.57.26-1.15.42-1.72.07-.27.15-.54.2-.81.07-.3.1-.61.13-.92l.16-.9a16.88 16.88 0 0 0 .26-1.83.75.75 0 0 0-.23-.55.79.79 0 0 0-1.11 0c-.1.1-.16.2-.2.31a.73.73 0 0 0-.15-.23c-.38-.36-.77-.71-1.1-1.11a3.65 3.65 0 0 1-.31-.55 7.52 7.52 0 0 1-.42-2.73c0-.36.02-.72.07-1.08.1-.54.26-1.06.46-1.57.16-.34.32-.68.5-1.02.2-.36.43-.71.64-1.07a32.4 32.4 0 0 1 1.43-2.13l.19-.23c.12-.15.27-.3.41-.44a6.4 6.4 0 0 1 1.8-1.3 4.13 4.13 0 0 1 1.21-.3c.5-.05 1-.1 1.51-.1zm0-1.56a14.24 14.24 0 0 0-2.55.27c-.42.09-.83.26-1.22.46a8.62 8.62 0 0 0-1.9 1.45l-.4.43-.2.23a2.75 2.75 0 0 0-.22.3l-.1.13-.73 1.04-.63 1.02c-.21.35-.43.7-.63 1.06-.42.77-.78 1.58-1 2.44a9 9 0 0 0-.2 2.68l.06.57a7.64 7.64 0 0 0 .63 2.4c.13.26.3.48.47.7.17.2.36.38.54.57.18.19.38.37.57.55a.8.8 0 0 0 1.15-.05l-.02.2c-.06.37-.15.74-.2 1.11l-.15 1.14c-.07.36-.17.71-.27 1.07l-.28 1.15-.3 1.23-.33 1.14a10.33 10.33 0 0 0-.47 2.97c0 .24.03.5.15.71.2.33.6.5.96.4.36-.1.57-.42.77-.7.12-.17.21-.35.31-.52.14-.25.3-.47.46-.7l.38-.44c.13-.16.25-.32.39-.47.3-.32.62-.63.91-.96.6-.65 1.11-1.37 1.65-2.08l.53-.67c.1-.13.2-.27.32-.4.11.05.23.09.34.12l.55.17a14.8 14.8 0 0 0 3.75.37c.85-.02 1.69-.06 2.53-.16.43-.06.88-.13 1.28-.3a7.68 7.68 0 0 0 1.18-.6c.18-.12.35-.27.52-.4l.5-.45c.28-.25.56-.5.86-.74.3-.25.6-.5.86-.77.3-.3.54-.65.74-1.01.1-.2.18-.4.27-.61a9.73 9.73 0 0 0 .4-1.9c.1-.8.08-1.61.03-2.41a23.4 23.4 0 0 0-.33-2.48 7.44 7.44 0 0 0-.56-1.82c-.09-.2-.2-.39-.32-.58a16.82 16.82 0 0 0-2.32-2.88c-.3-.28-.6-.53-.91-.78-.34-.28-.7-.54-1.04-.81-.32-.24-.64-.5-.97-.71a7.86 7.86 0 0 0-2.19-1.12 11.46 11.46 0 0 0-3.58-.56h-.05z" fill="#1B1B20"/></g><path fill-rule="evenodd" clip-rule="evenodd" d="M103.06 12.45c0 .43.36.78.79.78a.8.8 0 0 0 .78-.78.8.8 0 0 0-.78-.78.8.8 0 0 0-.79.78zM105 13.87c0 .42.35.78.78.78a.8.8 0 0 0 .79-.78.8.8 0 0 0-.79-.79.8.8 0 0 0-.78.79zM100.83 16.66c-.4.11-.68.56-.55.96.15.45.3.9.48 1.33.1.23.21.42.37.61.17.22.4.4.65.52.39.2.8.24 1.23.21a.78.78 0 0 0 .79-.78c0-.4-.36-.81-.79-.78h-.38l-.14-.04a1.44 1.44 0 0 1-.07-.04 1.5 1.5 0 0 1-.1-.1l-.15-.27-.37-1.07a.81.81 0 0 0-.76-.58c-.07 0-.14.01-.2.03zM48.68 66.38v0zm.7-8.26zm-.14-1.52a1.49 1.49 0 0 0-1 .43c-.24.22-.39.52-.48.82-.06.23-.08.47-.1.7l-.03 1.17-.02 1.46a50.62 50.62 0 0 1-.38 4.3c-.05.43-.12.85-.16 1.28-.05.42-.08.85-.1 1.27-.05.79-.06 1.57-.12 2.35-.05.82-.13 1.64-.2 2.46a66.7 66.7 0 0 1-.28 3.02c-.16 1.1-.33 2.2-.52 3.29-.2 1.19-.35 2.39-.51 3.58l.01-.1-.22 1.74c0-.07.02-.14.03-.2-.14 1-.25 2-.38 3a33.4 33.4 0 0 0-.29 2.46l-.12 1.25-.14 1.24-.1 1.25-.12 1.17-.14 1.24-.12 1.16c-.09.8-.14 1.59-.17 2.39-.04.78-.02 1.56-.12 2.34-.03.19.1.42.23.55a.8.8 0 0 0 1.11 0l.12-.16c.07-.12.11-.25.11-.4a13 13 0 0 0 .08-1.27l.05-1.25c.04-.83.1-1.67.2-2.5l.11-1.15c.05-.41.1-.83.13-1.25.04-.39.09-.77.12-1.16l.11-1.26.21-1.97.21-1.96c.15-1.05.27-2.1.4-3.16l-.01.08.22-1.74-.03.21.2-1.52c.12-.81.24-1.63.38-2.44l.4-2.5c.12-.83.21-1.67.3-2.5l.2-2.5c.09-.92.15-1.84.18-2.77.03-.92.09-1.84.2-2.76a66.28 66.28 0 0 0 .44-4l.05-1.1c.02-.35.01-.7.01-1.06 0-.57 0-1.15.06-1.73l.05-.2.01-.03h.46a21.32 21.32 0 0 1 1.62.14c.94.14 1.85.4 2.78.6.53.12 1.06.2 1.6.28.53.07 1.08.03 1.62.02a.8.8 0 0 0 .79-.79c0-.41-.36-.8-.8-.78l-.96.02c-.24 0-.48-.02-.72-.05-.76-.12-1.51-.3-2.26-.47-.4-.1-.8-.2-1.21-.27a15.64 15.64 0 0 0-2.46-.26l-.51-.01h-.02z" fill="#1B1B20"/><path fill-rule="evenodd" clip-rule="evenodd" d="M52.77 58.86c-.12.48-.18.98-.23 1.48l-.1 1.24c-.04.85-.05 1.7-.1 2.55-.06.79-.18 1.57-.26 2.36l-.25 2.6c-.07.79-.13 1.58-.15 2.37-.03.79-.06 1.58-.12 2.37l-.43 5.03-.11 1.13-.12 1.32-.2 2.4-.24 2.58c-.1.84-.18 1.69-.25 2.53-.07.93-.12 1.85-.2 2.77-.09.98-.15 1.95-.27 2.93l-.23 1.59c-.1.64-.2 1.28-.27 1.93-.12 1.14-.2 2.28-.32 3.42l-.16 1.03c-.04.21-.04.4.08.6a.8.8 0 0 0 1.07.28c.16-.1.33-.28.37-.47.08-.49.17-.98.22-1.48l.11-1.18c.08-.82.14-1.63.23-2.44l.33-2.23.2-1.48.1-1.28c.07-.84.15-1.67.2-2.5.06-.87.13-1.73.21-2.6l.26-2.54.22-2.46.2-2.39c.08-.85.17-1.7.23-2.55.12-1.63.31-3.25.4-4.88.05-.8.06-1.61.11-2.42.05-.81.13-1.62.2-2.43l.21-2.1.12-1.03c.05-.37.07-.74.1-1.11.04-.69.04-1.38.08-2.07.03-.66.1-1.32.17-1.98l.1-.48a.8.8 0 0 0-.75-.99.79.79 0 0 0-.76.58z" fill="#1B1B20"/><path fill-rule="evenodd" clip-rule="evenodd" d="M52.53 68.71c-.65.02-1.3.06-1.95.1-.33.03-.65.06-.98.07-.35.02-.72.02-1.07.03a.8.8 0 0 0-.79.78c0 .42.36.8.79.79.57-.02 1.15-.03 1.72-.07a40.97 40.97 0 0 1 5.02-.1l.95.18c.22.04.42.03.6-.08a.79.79 0 0 0 .3-1.07.77.77 0 0 0-.48-.36 11.92 11.92 0 0 0-2.57-.3l-1.54.03zM46.6 80.68c-.18.1-.31.27-.37.46a.78.78 0 0 0 .55.97c.5.09 1 .19 1.51.24.48.06.96.08 1.44.1l1.34.04c.42.02.83.06 1.24.11.88.14 1.76.3 2.64.42l2.01.27c.2.03.43-.1.56-.22a.78.78 0 0 0 0-1.11l-.16-.12a.79.79 0 0 0-.4-.11l-.57-.08.2.03-1.58-.22c-1.15-.17-2.3-.42-3.46-.5-1.09-.08-2.18-.06-3.26-.17a32.53 32.53 0 0 1-1.31-.21.74.74 0 0 0-.38.1zM98.45 48.3l.04.03-.04-.03zm-9.72-2.2c-.65.06-1.29.2-1.93.32a.79.79 0 0 0-.19 1.43c.2.11.4.12.6.08l1.35-.24c.32-.03.64-.03.97-.02l1.05.04 2.25.15c1.42.07 2.85.02 4.27.2.4.05.8.1 1.2.2.07.75.03 1.5 0 2.25-.05.83-.15 1.65-.2 2.48l-.05 1.21-.08 1.22c-.05.85-.08 1.7-.14 2.54l-.14 2.45c-.03.82-.03 1.65-.08 2.47-.05.82-.1 1.64-.12 2.46-.03.85-.1 1.7-.15 2.54a58.3 58.3 0 0 0-.07 2.34c0 .84 0 1.67-.04 2.5l-.11 2.47a679.57 679.57 0 0 0-.06 7.36v2.54c0 .8.01 1.59-.03 2.38-.04.83-.08 1.66-.15 2.49a47.44 47.44 0 0 0-.18 4.8c0 .8.01 1.6-.05 2.4-.05.58-.1 1.16-.11 1.74-.03.63-.03 1.25-.03 1.88 0 .43.36.79.78.79a.8.8 0 0 0 .79-.79c0-.85.01-1.7.06-2.55l.09-1.17c.03-.4.03-.8.03-1.19 0-1.6.01-3.2.1-4.79.06-.82.14-1.64.19-2.46.04-.82.08-1.64.08-2.46V81.2c0-1.65 0-3.3.04-4.94 0-.78.04-1.57.08-2.35l.06-1.28c.02-.43.02-.85.02-1.28.01-1.6.05-3.2.17-4.8.05-.84.07-1.68.11-2.52.04-.8.1-1.62.12-2.43.02-.83.04-1.67.1-2.5l.14-2.4.07-1.32.08-1.22c.03-.84.07-1.69.15-2.53.08-.81.15-1.64.14-2.46 0-.44-.02-.88-.1-1.31-.04-.2-.1-.37-.2-.54a1.1 1.1 0 0 0-.33-.34c-.09-.07-.2-.12-.31-.16-.2-.06-.4-.12-.61-.15-.43-.08-.87-.13-1.3-.19-.41-.05-.83-.07-1.24-.1-.39-.03-.78-.03-1.16-.03a79.05 79.05 0 0 1-2.87-.12c-.52-.04-1.04-.08-1.56-.1l-.76-.03h-.74z" fill="#1B1B20"/><path fill-rule="evenodd" clip-rule="evenodd" d="M86.35 60.24c-.39.03-.77.08-1.15.13l-.21.02a.78.78 0 0 0-.35 1.31c.14.13.36.26.56.23l1-.12c.33-.03.65-.03.97-.02a47.14 47.14 0 0 1 5.64.47l.94.12c.54.08 1.08.16 1.62.27a.79.79 0 0 0 .97-.55c.1-.38-.13-.87-.55-.96-.83-.16-1.66-.27-2.49-.38-.65-.09-1.3-.17-1.96-.24l-1.98-.18c-.68-.05-1.36-.09-2.04-.1l-.57-.02c-.14 0-.27 0-.4.02zM93.42 83.35l-2.5.01c-.84.01-1.7.02-2.55.05-.81.02-1.62.1-2.43.15-.3.02-.6.01-.89.02a.8.8 0 0 0-.78.78c0 .42.35.79.78.78.42 0 .83 0 1.25-.04l1.23-.1a63.5 63.5 0 0 1 2.5-.06 303.64 303.64 0 0 1 3.81-.02c.4 0 .8 0 1.2.02a7.69 7.69 0 0 1 .67.07c.22.03.4.03.6-.08a.79.79 0 0 0 .29-1.07c-.1-.16-.28-.33-.47-.36a11.07 11.07 0 0 0-1.96-.15h-.75z" fill="#1B1B20"/><path fill-rule="evenodd" clip-rule="evenodd" d="M91.49 49.8c-.02.42 0 .85 0 1.27l.05 1.22c.04.83.1 1.65.08 2.47l-.08 2.35c-.02.4-.04.8-.04 1.21l.04 1.26c.03.82.1 1.63.1 2.45l.01 2.45v4.9c-.02 1.62-.05 3.26-.13 4.89-.09 1.67-.06 3.34-.06 5.01 0 3.35.02 6.7-.02 10.04-.01.86-.04 1.71-.07 2.57l-.06 1.28a95.36 95.36 0 0 0 .1 5.03 23.28 23.28 0 0 0 .22 1.74c.02.2.2.38.36.47a.8.8 0 0 0 1.07-.28l.08-.19a.79.79 0 0 0 0-.41l-.08-.56c-.18-1.68-.2-3.37-.2-5.06 0-.43.02-.87.04-1.3.03-.43.04-.86.06-1.3.03-.82.04-1.66.05-2.49.05-3.3.02-6.62.02-9.93v-2.56c0-.4 0-.8.02-1.2l.06-1.32c.08-1.61.1-3.23.1-4.84l.01-4.96c0-.82.02-1.63 0-2.45-.03-.82-.1-1.64-.13-2.46 0-.37-.02-.73-.01-1.1 0-.38.02-.77.04-1.16.03-.76.06-1.53.07-2.3.02-.77-.05-1.55-.08-2.33l-.04-1.16c-.01-.42-.02-.84-.01-1.25.01-.43-.37-.78-.79-.78a.8.8 0 0 0-.78.78zM87.2 49.8c.03.83.06 1.64.12 2.45.05.8.04 1.6.04 2.4v4.83c-.01 1.63-.02 3.27-.1 4.9-.03.83-.09 1.66-.09 2.49v2.46c-.01 1.67-.03 3.34-.1 5-.04.84-.1 1.67-.1 2.5-.02.82-.03 1.63-.08 2.44-.04.8-.1 1.6-.2 2.4-.12.82-.25 1.64-.35 2.46-.1.82-.18 1.65-.24 2.48l-.16 2.4-.15 2.49c-.01.48-.03.97-.06 1.45s-.06.96-.06 1.44c0 1.04-.02 2.09-.04 3.13-.01.43.36.78.78.78a.8.8 0 0 0 .79-.78l.04-2.69c0-.4 0-.81.02-1.22l.07-1.26.12-2.41c.06-.85.1-1.7.17-2.54l.12-1.68.17-1.6c.11-.8.24-1.59.34-2.38.1-.84.17-1.68.22-2.52.05-.85.05-1.7.07-2.54.01-.8.07-1.62.1-2.43.08-1.69.09-3.38.1-5.07v-2.45c0-.83.07-1.65.1-2.47.08-1.64.08-3.29.09-4.93v-4.79c0-.77 0-1.54-.04-2.31-.06-.8-.1-1.61-.12-2.42a.8.8 0 0 0-.78-.78c-.42 0-.8.35-.79.78z" fill="#1B1B20"/></g></svg>
