<svg width="150" height="110" fill="none" xmlns="http://www.w3.org/2000/svg"><mask id="a" mask-type="alpha" maskUnits="userSpaceOnUse" x="0" y="0" width="150" height="110"><path fill="#C4C4C4" d="M0 0h150v110H0z"/></mask><g mask="url(#a)"><path fill-rule="evenodd" clip-rule="evenodd" d="M76.27 17.86c-.8-.13-1.85-.27-2.9-.2a19.8 19.8 0 0 0-3.93.77l-1.55.41-.24.06c-.59.16-1.16.32-1.74.5l-.49.16-1.29.42-.7.23-1.07.35a38.17 38.17 0 0 0-4.28 1.64c-.27.13-.54.29-.8.44l-.2.11a68 68 0 0 0-1.6.95l-1.14.69c-.71.42-1.44.85-2.14 1.31a30.67 30.67 0 0 0-4.41 3.66c-.52.5-.9.9-1.25 1.28a38 38 0 0 0-3.23 4.61c-.27.47-.53.99-.8 1.6-.2.44-.37.9-.54 1.35l-.05.14-.37.97-.3.8a36.76 36.76 0 0 0-1.29 4.01c-.3 1.19-.5 2.41-.7 3.6l-.02.15a45.1 45.1 0 0 0-.5 3.65c-.06.74-.12 1.47-.12 2.2a24.35 24.35 0 0 0 .62 5.52c.3 1.28.72 2.53 1.12 3.74l.5 1.4.1.27c.17.47.38 1.03.65 1.57.29.56.65 1.1 1.12 1.67.31.37.62.76.9 1.14l.25.31c.48.63.92 1.12 1.36 1.55a14.56 14.56 0 0 0 2.96 2.16c.46.25.94.47 1.4.68l.18.09c.33.14.66.28.99.4l.43.17c.36.14.74.27 1.23.42.33.1.65.22.97.33l.69.25c.46.16.95.29 1.42.4l.5.14a28.72 28.72 0 0 1 1.36.48c.4.14.82.25 1.22.35l.67.18.08.03.24.07.07.02.06.02a14.1 14.1 0 0 0 .72.2l1 .23c.61.12 1.23.23 1.86.33h.05l.06.1c.36.58.78 1.25 1.16 1.92.43.81.8 1.42 1.19 1.98l.23.33c.33.46.66.94.96 1.43l.47.96.2.42.73 1.54c.23.52.45 1.05.65 1.58.08.22.18.43.28.64.13.3.27.6.37.93a6.57 6.57 0 0 0 .24.65c.12.22.2.35.4.54.15.13.34.22.56.25.34.06.7-.03.96-.22.31-.23.45-.56.57-.89l.44-1.32.1-.3a78.14 78.14 0 0 1 1.38-4.02c.15-.43.31-.88.49-1.3l.56-1.3.24-.53.2-.45c.2-.48.41-.96.63-1.43l.2-.47c.2-.42.38-.85.62-1.26l.38-.6-.06.09a97.76 97.76 0 0 0 1.14-1.85l.06-.09.13-.2c.16-.26.3-.5.44-.77l.04-.08.17-.29.07-.12.28.04a4.62 4.62 0 0 0 1.48-.03l.32-.02.43-.04.97-.09.66-.07.7-.06.97-.08c.4-.04.8-.11 1.19-.18l.43-.08 1.68-.3c1.1-.22 2.44-.49 3.69-.9l1.06-.34c.38-.12.77-.24 1.15-.38.4-.13.75-.27 1.08-.43a14.48 14.48 0 0 0 2.92-2.07 41.62 41.62 0 0 0 1.66-1.6l.18-.17a11.15 11.15 0 0 0 2.2-2.4c.4-.57.77-1.19 1.1-1.73.28-.49.54-1.03.78-1.66l.27-.87.07-.25a61.47 61.47 0 0 0 1.24-6.44 27.74 27.74 0 0 0 .18-3.97 51.34 51.34 0 0 0-.24-3.61c-.26-2.72-.6-5.1-1.05-7.27a39.32 39.32 0 0 0-.97-3.69 18.78 18.78 0 0 0-3.62-6.45c-.7-.83-1.5-1.77-2.29-2.66-.4-.46-.91-1-1.5-1.45-.53-.4-1.12-.74-1.68-1.06l-.08-.05c-.44-.26-.9-.5-1.34-.73l-.28-.16c-.49-.25-1-.46-1.56-.69-.55-.22-1.13-.42-1.78-.6l-.88-.25-.9-.25-1.53-.42a214.57 214.57 0 0 1-2.84-.78l-.87-.23c-.55-.16-1.16-.33-1.78-.47a87.35 87.35 0 0 0-4.83-.91z" fill="#FFD000"/><path fill-rule="evenodd" clip-rule="evenodd" d="M76.61 84.88l.06-.09-.06.1zm1.82 1.61l-.14.22.17-.26-.03.04zm.17-.28l-.04.07.04-.07zm-2.13-1.1l-.07.12.07-.12zM70.7 74.44a.8.8 0 0 1 .06.07l-.06-.07zm-14.23-6l.1.03c-.04 0-.07-.02-.1-.03zm27.7-45.05c.63.04 1.24.12 1.86.2 1.26.15 2.52.32 3.77.56 1.25.25 2.5.5 3.74.77a60.37 60.37 0 0 1 4.44 1.16c.48.15.96.3 1.43.5.53.22 1.05.46 1.58.7.86.43 1.68.95 2.5 1.46.41.26.82.53 1.23.82.48.33.92.72 1.37 1.1a39.44 39.44 0 0 1 4.66 4.77c.65.75 1.28 1.54 1.8 2.4.63 1.2 1.19 2.43 1.56 3.74a9.14 9.14 0 0 1 .28 2.53c-.02.5-.02 1.02-.03 1.54a19.74 19.74 0 0 1-.7 4.6c-.4 1.23-.95 2.4-1.62 3.53-.52.81-1.1 1.59-1.68 2.37-.3.41-.62.82-.94 1.22-.3.37-.65.72-1 1.06-.98.9-2.03 1.73-3.17 2.43a29.9 29.9 0 0 1-2.93 1.37c-.52.21-1.03.46-1.55.7-.53.24-1.06.47-1.6.69l-3.23 1.34c-1.05.44-2.11.9-3.21 1.2-.48.11-.95.18-1.43.25a11.94 11.94 0 0 0-2.33.57c-.24.1-.46.23-.67.38a2.7 2.7 0 0 0-.72.9l-.3.5c-.3.46-.62.9-.93 1.36-.33.48-.64.97-.98 1.45-.34.47-.67.93-1.03 1.38-.38.48-.79.94-1.18 1.4-.78.94-1.55 1.9-2.27 2.88-.72.97-1.26 2.06-1.78 3.16-.3.63-.6 1.25-.91 1.86-.25.48-.53.95-.82 1.4l-.65 1.06-.12.18-.1.18.1-.18-.14.23-.08.14-.07.11.08-.14c-.3.48-.61.95-.89 1.44l-.73 1.3-.12.2-.02-.49c-.04-.64-.16-1.26-.28-1.9-.22-1.16-.47-2.32-.63-3.49-.09-.63-.18-1.26-.25-1.89l-.18-1.9c-.06-.62-.1-1.25-.17-1.87-.06-.62-.11-1.23-.14-1.85-.04-.62-.06-1.27-.42-1.8-.28-.4-.68-.67-1.14-.84-.26-.09-.53-.16-.8-.23-.48-.15-.96-.3-1.43-.47-.67-.24-1.35-.45-2.03-.66a34.6 34.6 0 0 0-3.5-.77c-1.24-.22-2.48-.43-3.71-.68a42.3 42.3 0 0 1-3.2-.79 23.49 23.49 0 0 1-4.2-1.95c-.54-.35-1.1-.71-1.58-1.14-.53-.47-1.05-.95-1.54-1.46l-.77-.9c-.3-.37-.58-.77-.86-1.16-.5-.71-.97-1.45-1.4-2.2a9.72 9.72 0 0 1-.64-1.48c-.09-.4-.15-.81-.19-1.22-.04-.41-.04-.83-.04-1.25.04-.88.11-1.76.2-2.64a25.16 25.16 0 0 1 .53-2.6A38.02 38.02 0 0 1 48.72 45l1.4-2.65c.46-.88.94-1.76 1.44-2.62.2-.31.4-.62.62-.92l.94-1.25c.55-.72 1.12-1.43 1.69-2.14a39.04 39.04 0 0 1 3.55-3.84c.46-.43.92-.84 1.43-1.21a36.4 36.4 0 0 1 3.99-2.63l1.79-1.03c.58-.3 1.16-.6 1.75-.88.28-.14.58-.24.87-.35l1-.36c1.3-.46 2.62-.89 3.96-1.25.7-.16 1.41-.31 2.12-.38.8-.08 1.6-.1 2.39-.12.82-.03 1.65-.03 2.47-.05.76-.01 1.53-.02 2.29-.01.58.02 1.17.04 1.75.08zm2.34-2.17c-.63-.08-1.26-.17-1.9-.2-.67-.05-1.34-.08-2.01-.1-1.32-.04-2.63 0-3.94.02l-1.8.05c-.59.02-1.18.03-1.77.1-1.33.13-2.62.46-3.89.84a62.04 62.04 0 0 0-4.48 1.54c-.31.13-.61.28-.92.42-.64.31-1.26.66-1.89 1a57.47 57.47 0 0 0-3.3 1.96c-.54.35-1.07.73-1.6 1.1-.5.34-.98.72-1.44 1.12a39.02 39.02 0 0 0-5.35 5.74c-.79.99-1.6 1.98-2.29 3.03a40.95 40.95 0 0 0-2.02 3.54c-.58 1.1-1.17 2.2-1.74 3.32a54.83 54.83 0 0 0-1.66 3.6c-.27.63-.46 1.3-.65 1.95-.17.62-.29 1.24-.4 1.86-.12.63-.16 1.26-.22 1.9-.05.67-.09 1.36-.09 2.05 0 1.3.12 2.65.67 3.85.53 1.15 1.21 2.22 1.92 3.26a20.1 20.1 0 0 0 3.88 4.27 17.57 17.57 0 0 0 3.23 2.04 20.04 20.04 0 0 0 4.84 1.79c1.06.27 2.13.5 3.2.69 2.1.36 4.19.71 6.23 1.3l1.5.5a35.32 35.32 0 0 0 1.93.61l.04.67.06.96.17 1.78c.12 1.31.22 2.63.4 3.93.16 1.19.36 2.36.58 3.53.12.58.25 1.17.34 1.75.1.63.12 1.24.13 1.87v1c0 .29.21.61.43.79.13.1.28.18.44.23l-.03.03c-.22.21-.3.6-.26.9a1.21 1.21 0 0 0 1.33 1.06c.33-.04.56-.2.8-.44.28-.28.47-.65.67-1 .14-.25.27-.52.4-.79l.67-1.25c.45-.78.88-1.56 1.35-2.33l.36-.57.1-.15.17-.28a204.65 204.65 0 0 0 1.42-2.33c.3-.52.57-1.06.83-1.6.25-.54.5-1.08.77-1.62.23-.45.47-.9.73-1.33.56-.83 1.2-1.6 1.81-2.38.66-.83 1.37-1.61 2.03-2.44.61-.76 1.15-1.58 1.7-2.4.6-.86 1.22-1.7 1.73-2.63a2 2 0 0 1 .06-.08h.02c.1-.05.22-.08.33-.12.18-.07.37-.12.55-.18.51-.1 1.04-.18 1.56-.26.7-.1 1.38-.27 2.04-.5 1.16-.4 2.3-.9 3.42-1.36l3.45-1.43c.55-.24 1.08-.51 1.63-.75.58-.25 1.16-.48 1.74-.74a28.5 28.5 0 0 0 2.65-1.42c.3-.18.57-.4.85-.61 1.04-.77 2-1.63 2.9-2.57.4-.42.76-.9 1.1-1.37l1.13-1.53a17.28 17.28 0 0 0 3.54-9.54c.05-.76.06-1.5.07-2.26.03-.7.06-1.39-.03-2.08-.09-.7-.24-1.4-.44-2.08-.34-1.1-.8-2.14-1.31-3.16-.16-.3-.31-.62-.5-.92-.15-.25-.32-.49-.49-.73-.34-.48-.72-.94-1.1-1.4-.76-.92-1.57-1.8-2.38-2.67-.91-.98-1.9-1.9-2.9-2.78-.44-.38-.89-.76-1.37-1.1-.52-.36-1.05-.71-1.59-1.04-1.03-.63-2.05-1.27-3.14-1.78-.57-.27-1.14-.53-1.73-.73a99.1 99.1 0 0 0-3.9-1.14c-.65-.17-1.3-.3-1.94-.45-1.2-.28-2.43-.51-3.65-.75a71.15 71.15 0 0 0-3.78-.58z" fill="#1B1B20"/><path fill-rule="evenodd" clip-rule="evenodd" d="M67.15 39.5c-.1.65.36 1.28 1 1.38.65.1 1.28-.35 1.38-1 .1-.65-.35-1.28-1-1.38-.65-.1-1.27.35-1.38 1zM80.92 36.97c-.1.65.35 1.28 1 1.38.65.1 1.28-.35 1.38-1 .1-.65-.35-1.28-1-1.38-.65-.1-1.28.35-1.38 1zM82.2 48.25c-.3.42-.6.82-.94 1.2A8.02 8.02 0 0 1 79 50.7c-.25.04-.49.07-.73.08a4.31 4.31 0 0 1-1.2-.23l-.96-.3c-.22-.07-.45-.12-.68-.18-.26-.09-.52-.2-.77-.33-.46-.3-.9-.63-1.3-1.01-.3-.35-.6-.7-.88-1.06-.2-.26-.46-.43-.78-.48a1.2 1.2 0 0 0-1.17 1.9c.39.48.77.96 1.2 1.4.3.3.6.57.95.8.19.15.39.27.59.4.3.19.58.35.9.48.46.2.94.29 1.42.42l1.04.32c.3.09.6.18.9.22a5.81 5.81 0 0 0 2.54-.24c.42-.14.8-.36 1.19-.57l1-.6a6.91 6.91 0 0 0 1.82-1.94c.2-.27.3-.56.27-.9-.04-.3-.2-.6-.44-.8a1.21 1.21 0 0 0-.58-.25c-.41-.06-.86.07-1.11.42zM21.98 55.1c-.26.1-.43.29-.61.48-.45.49-.32 1.3.16 1.7.16.12.34.2.53.25l.2.34a21.3 21.3 0 0 0 1.54 2.23c.38.46.8.89 1.18 1.35.38.46.76.93 1.1 1.42.67.97 1.21 2.02 1.86 3 .35.53.72 1.05 1.07 1.59a109.83 109.83 0 0 0 3.17 4.61c.71.98 1.5 1.9 2.24 2.87C36 77 37.5 79.15 39.12 81.2a73.2 73.2 0 0 0 1.78 2.17c.63.74 1.26 1.48 1.82 2.27a60.8 60.8 0 0 1 1.6 2.4c.26.41.53.82.84 1.2.34.42.69.82 1.04 1.22.22.25.45.43.79.48a1.2 1.2 0 0 0 1.37-1c.05-.29-.01-.67-.21-.9-.44-.5-.88-1-1.28-1.52-.36-.48-.67-1-1-1.51-.68-1.07-1.4-2.11-2.2-3.09-.82-.97-1.65-1.94-2.44-2.93-.79-.98-1.52-2-2.28-3.01-.76-1.03-1.51-2.07-2.3-3.09-.76-1-1.57-1.97-2.33-2.98-1.49-2-2.84-4.09-4.23-6.16-.55-.84-1.03-1.73-1.58-2.57-.52-.8-1.07-1.59-1.71-2.3a22.8 22.8 0 0 1-1.83-2.24c-.3-.42-.57-.86-.83-1.3-.15-.26-.28-.52-.47-.75a1.57 1.57 0 0 0-.93-.6c-.23-.03-.54.01-.76.1zM18.9 71.66c-.43.52-.33 1.26.16 1.7.12.09.22.19.33.29.77.88 1.5 1.8 2.22 2.72a283 283 0 0 0 2.25 2.78c.35.43.72.85 1.08 1.27.44.53.88 1.06 1.35 1.55.4.4.79.81 1.2 1.2.45.42.92.84 1.36 1.29l.34.34c.6.65 1.2 1.31 1.83 1.95l1.65 1.7 1.5 1.6.21.23a1.2 1.2 0 0 0 1.95-.74c.05-.28 0-.68-.21-.9-.71-.76-1.41-1.53-2.13-2.28l-1.77-1.8c-.71-.78-1.42-1.59-2.19-2.3l-1.15-1.09c-.34-.32-.66-.65-.98-.99-.57-.62-1.11-1.29-1.65-1.94-.58-.68-1.17-1.36-1.72-2.07-.57-.74-1.16-1.47-1.75-2.2-.7-.85-1.36-1.76-2.19-2.48a1.1 1.1 0 0 0-.55-.26c-.42-.07-.87.1-1.14.43zM123.73 62.2c-.59.43-1.08.97-1.6 1.48-.38.39-.78.77-1.17 1.14-.84.77-1.7 1.52-2.53 2.3-.87.8-1.7 1.64-2.55 2.46l-1.24 1.13-1.34 1.18c-1.03.91-1.98 1.9-2.98 2.84l-2.74 2.69c-.97.95-1.92 1.9-2.84 2.9-.86.9-1.74 1.78-2.61 2.67-.85.84-1.67 1.7-2.53 2.53-.85.76-1.69 1.52-2.6 2.21-.5.4-.99.78-1.44 1.23-.46.45-.9.92-1.33 1.4-.45.48-.32 1.3.17 1.7.25.2.58.3.9.26.32-.04.57-.2.8-.44.4-.44.82-.88 1.24-1.31.43-.38.87-.72 1.32-1.07.54-.42 1.06-.86 1.56-1.31.56-.5 1.1-1 1.64-1.51.47-.45.91-.92 1.36-1.38.84-.88 1.72-1.74 2.57-2.62.94-.97 1.87-1.96 2.83-2.92 1.78-1.79 3.6-3.54 5.4-5.3.86-.79 1.76-1.54 2.63-2.33.97-.89 1.9-1.81 2.83-2.73l2.56-2.32c.9-.81 1.76-1.68 2.62-2.53l.48-.4c.53-.38.66-1.15.27-1.68a1.2 1.2 0 0 0-1.68-.27zM127.79 73.14c-.47.38-.9.82-1.32 1.25l-1.07 1.1-1.02 1.08c-.37.38-.76.74-1.15 1.1l.23-.2c-.9.77-1.8 1.51-2.72 2.25-.97.79-1.93 1.6-2.87 2.4-.97.84-1.97 1.64-2.95 2.46-.97.8-1.93 1.6-2.93 2.36-.68.51-1.37 1-2.05 1.52-.76.58-1.57 1.07-2.39 1.56-.26.16-.43.5-.48.79a1.21 1.21 0 0 0 1 1.38c.34.05.62-.05.9-.22.6-.35 1.19-.71 1.76-1.1.52-.35 1-.74 1.5-1.11l1.49-1.1c.5-.39 1-.79 1.48-1.2.94-.78 1.9-1.54 2.83-2.32 1-.82 1.95-1.68 2.94-2.5.67-.57 1.36-1.1 2.04-1.66.72-.58 1.44-1.17 2.11-1.8.33-.32.68-.62 1-.95l1.06-1.12a68.16 68.16 0 0 1 2.02-2.02c.26-.2.43-.46.49-.79a1.2 1.2 0 0 0-.22-.9c-.19-.25-.5-.43-.81-.48-.3-.04-.63.02-.87.22zM129.16 86.33c-1.95 1.35-3.74 2.93-5.57 4.44-.84.68-1.74 1.27-2.62 1.9-.42.3-.85.6-1.25.94-.47.39-.93.8-1.38 1.21-.25.22-.43.44-.48.79a1.2 1.2 0 0 0 1.9 1.16c.45-.41.9-.82 1.38-1.21.4-.34.83-.63 1.25-.94.88-.63 1.78-1.22 2.62-1.9 1.83-1.51 3.61-3.1 5.57-4.44.54-.38.64-1.16.26-1.69-.2-.26-.47-.42-.77-.47-.31-.05-.64.02-.91.2z" fill="#1B1B20"/><mask id="b" mask-type="alpha" maskUnits="userSpaceOnUse" x="14" y="85" width="14" height="13"><path fill-rule="evenodd" clip-rule="evenodd" d="M16.35 85.8l11.55 1.83-1.54 9.74-11.55-1.83 1.54-9.74z" fill="#fff"/></mask><g mask="url(#b)"><path fill-rule="evenodd" clip-rule="evenodd" d="M16.92 86.05c-.6.24-.94.95-.69 1.56.22.55.47 1.08.78 1.59.16.27.38.5.6.73l.55.57c.46.46.96.88 1.44 1.31.97.87 1.94 1.73 2.85 2.66.66.72 1.3 1.48 1.93 2.23a1.2 1.2 0 0 0 2.16-.52c.05-.3-.01-.67-.21-.9a43.63 43.63 0 0 0-5.13-5.27c-.59-.53-1.19-1.05-1.75-1.61l-.07-.07a3.9 3.9 0 0 1-.9-1.6c-.17-.4-.54-.68-.95-.74-.2-.04-.41-.02-.61.06z" fill="#1B1B20"/></g><path fill-rule="evenodd" clip-rule="evenodd" d="M11.3 52.26l-.06.03.06-.03zm.39-1.73l.14-.05.02.02v.03a5.53 5.53 0 0 1-.44 1.63l-.03.04-.1.01a2.38 2.38 0 0 1-.22-.04 3.05 3.05 0 0 1-.33-.13l-.18-.16-.04-.05-.01-.04-.02-.14c.02-.15.04-.29.08-.43.08-.23.17-.46.27-.68a1.25 1.25 0 0 0 .86 0zm.1-.09h-.07.07zm-.02-2.38c-.11 0-.21.02-.32.04-.22.05-.43.1-.64.19-.14.05-.26.13-.37.23l-.02-.01c-.59-.27-1.33 0-1.6.6-.17.4-.35.81-.5 1.23-.06.17-.1.35-.15.53-.1.35-.1.73-.09 1.08l.06.33a2.71 2.71 0 0 0 .74 1.34c.39.38.85.65 1.37.81a2.77 2.77 0 0 0 1.86.06c.64-.2 1.13-.65 1.44-1.23a9.43 9.43 0 0 0 .66-2.15c.05-.27.04-.55.04-.83 0-.26-.04-.52-.15-.76a2.53 2.53 0 0 0-.96-1.07 2.55 2.55 0 0 0-.38-.22c-.16-.08-.36-.12-.54-.16l-.45-.02zM137.34 60.76zm-.2-.37l.02.03-.02-.03zm.04-.03l.04.08a1.02 1.02 0 0 1-.04-.08zm1.02-.29v0zm-.06-.1l.04.07-.05.1-.1.11v.01c-.16.07-.31.13-.47.18l-.08.01.17-.3.49-.17zm.06-.02v0zm-.31-.22l.06.03-.06-.03zm.25-2.22c-.51.05-.97.28-1.46.43-.25.07-.47.28-.6.5-.25.13-.4.33-.55.58l-.22.39c-.18.33-.3.67-.38 1.04a1.98 1.98 0 0 0 .3 1.33c.24.41.6.69 1.03.9.38.2.82.21 1.24.2.27 0 .58-.1.84-.17a3.4 3.4 0 0 0 1.22-.6c.33-.26.53-.57.75-.92.15-.26.22-.55.3-.83.1-.37-.02-.86-.18-1.2a4.03 4.03 0 0 0-.9-1.22 1.71 1.71 0 0 0-.5-.3 1.97 1.97 0 0 0-.89-.14zM8.67 75.74c-.1.65.35 1.28 1 1.38.65.1 1.28-.35 1.38-1 .1-.65-.35-1.28-1-1.38-.65-.1-1.28.35-1.38 1zM136.3 78.93c-.1.65.36 1.28 1.01 1.38.65.1 1.28-.35 1.38-1 .1-.65-.35-1.28-1-1.38-.65-.1-1.28.35-1.38 1zM127.06 39.28a1.2 1.2 0 0 0-.48.79c-.05.29.01.66.21.9a34.74 34.74 0 0 1 2.81 3.54c.3.41.56.87.9 1.24l.2.23a1.2 1.2 0 0 0 1.48.04c.26-.19.43-.47.48-.79.05-.28-.01-.67-.21-.9-.32-.35-.57-.77-.84-1.16a32.47 32.47 0 0 0-2.87-3.62 1.27 1.27 0 0 0-.79-.48c-.3-.05-.63.02-.9.21z" fill="#1B1B20"/><path fill-rule="evenodd" clip-rule="evenodd" d="M131.24 39.65c-.36.24-.7.5-1.05.76-.38.29-.72.63-1.06.96-.26.25-.48.53-.72.8-.3.36-.6.72-.93 1.06-.21.22-.3.6-.26.9.03.3.2.6.43.8.25.2.58.3.9.26.33-.04.58-.2.8-.44.35-.36.67-.75 1-1.14.27-.31.55-.61.84-.9.47-.4.95-.76 1.46-1.11.54-.37.65-1.16.27-1.68-.2-.27-.47-.43-.77-.48-.31-.05-.64.02-.91.2zM26.66 37.7c-.1.66.35 1.28 1 1.39.65.1 1.27-.36 1.38-1 .1-.65-.36-1.28-1-1.38-.65-.1-1.28.35-1.38 1zM109.5 12.2c-.1.65.35 1.27 1 1.38.65.1 1.28-.36 1.38-1 .1-.65-.35-1.28-1-1.38-.65-.1-1.28.35-1.38 1zM78.51 9.1c-.1.65.35 1.27 1 1.38.65.1 1.28-.36 1.38-1 .1-.65-.35-1.28-1-1.38-.65-.1-1.28.35-1.38 1zM96.72 8.23c-.5.65-.95 1.34-1.45 2-.53.7-1.14 1.35-1.76 1.99-.21.22-.3.6-.26.9a1.21 1.21 0 0 0 1.33 1.06c.33-.04.57-.2.8-.44.6-.62 1.19-1.26 1.73-1.94.51-.66.96-1.38 1.47-2.05.4-.52.35-1.27-.17-1.7a1.2 1.2 0 0 0-.57-.25c-.41-.06-.86.08-1.12.43zM45.04 17.63a1.2 1.2 0 0 0-.48.78c-.05.35.05.61.22.9.17.29.34.58.52.85.16.24.36.45.54.67.41.49.8 1 1.2 1.5.21.24.47.42.8.47.3.05.63-.03.9-.21.5-.37.67-1.17.26-1.69l-1.18-1.46-.54-.65c-.2-.28-.38-.6-.55-.9-.16-.26-.5-.43-.79-.48-.31-.05-.64.03-.9.22zM29.57 20.13a1.21 1.21 0 0 0-1.07 1.33c.03.28.19.63.44.8.34.22.67.45 1 .7.3.2.58.45.86.69a25.94 25.94 0 0 1 2.73 2.77c.21.25.45.43.78.48a1.21 1.21 0 0 0 1.38-1c.05-.3-.02-.66-.21-.9l-1.13-1.24c-.43-.45-.86-.89-1.3-1.31-.38-.36-.76-.74-1.18-1.06-.45-.35-.93-.68-1.4-1a1.5 1.5 0 0 0-.6-.26c-.1-.01-.2-.02-.3 0z" fill="#1B1B20"/><path fill-rule="evenodd" clip-rule="evenodd" d="M34.34 19.12c-.29.04-.63.2-.8.44a55.1 55.1 0 0 1-3.3 4.19c-.41.5-.32 1.28.18 1.7.51.41 1.27.32 1.7-.18a55.05 55.05 0 0 0 3.29-4.19c.18-.27.3-.55.26-.9a1.21 1.21 0 0 0-1.33-1.06zM117.64 21.74l.05.05a.68.68 0 0 1-.05-.05zm.78-.36v.05l-.11.22a2 2 0 0 1-.09.06l-.04.02.02-.03.22-.32zm.37-.08l.03.01h-.03zm.16-.07l-.1.02.1-.02zm-.45-2.34c-.08 0-.17.02-.26.04a1.2 1.2 0 0 0-1.27.38c-.55.71-1.12 1.43-1.33 2.32-.07.3-.08.58-.07.88 0 .17.07.35.13.51.1.27.3.46.5.66.12.13.3.2.46.3.2.11.47.16.7.21l.15.02.47.01c.26-.02.49-.07.74-.13a2.82 2.82 0 0 0 2.12-2.54c.08-.76-.06-1.6-.66-2.12a2.53 2.53 0 0 0-1.18-.54c-.16-.03-.34-.01-.5 0z" fill="#1B1B20"/></g></svg>
