<svg width="150" height="110" fill="none" xmlns="http://www.w3.org/2000/svg"><path fill-rule="evenodd" clip-rule="evenodd" d="M114.32 79.3h.06l.07-1.33-.13 1.34z" fill="#1B1B20"/><path fill-rule="evenodd" clip-rule="evenodd" d="M90.05 11.17l-.97.01a64.07 64.07 0 0 1-2.58.03l-.98.01c-.94.01-1.9.12-2.83.33l-1.43.35-1.14.27-.76.17-.99.22-1.01.27-.67.18-.26.07c-.47.12-.95.25-1.44.35-.6.13-1.18.22-1.84.31-.5.07-1.01.12-1.51.17-.37.04-.74.07-1.1.12-.84.1-1.67.28-2.47.45l-.43.1-1.35.32-1.1.26c-.38.08-.82.18-1.26.32l-.2.06c-.3.1-.63.19-.95.27l-.12.02-.5.13a8.2 8.2 0 0 0-1.4.7 11.47 11.47 0 0 1-.84.5l-.16.1a6.23 6.23 0 0 0-1.26.18 4.23 4.23 0 0 0-1.6.9l-.33.24-.47.32c-.22.16-.46.32-.68.5-.24.18-.45.37-.65.59-.16.17-.3.35-.45.53l-.01.01-.88 1.1-.45.54-.4.48a15.51 15.51 0 0 0-1.45 2.2 78.84 78.84 0 0 1-1.2 2.14 19.5 19.5 0 0 0-1.32 2.52l-.1.19a20 20 0 0 0-.6 1.48 16 16 0 0 0-.62 2.76c-.15.93-.3 1.93-.36 2.91a61.45 61.45 0 0 0-.08 2.89v.28c-.01.8-.02 1.64.04 2.46.08.97.24 1.92.48 2.82.12.43.25.9.4 1.36a17.23 17.23 0 0 0 1.89 3.76 13.6 13.6 0 0 0 1.98 2.26c.62.58 1.34 1.12 2.35 1.75l.16.1c.33.22.67.43 1 .67l.42.3.68.5c.7.52 1.44 1.06 2.24 1.47.58.29 1.18.56 1.76.81l.73.33.21.1c.4.18.82.37 1.24.53.37.15.78.27 1.3.4.26.07.5.13.76.18.26.06.52.09.78.12l.18.03 1.24.14.35.04c.5.06 1.03.1 1.53.14.48.03.97.07 1.45.12.93.14 1.84.33 2.61.5l.1.01 2.56.58.9.23c.55.14 1.12.29 1.69.4.27.07.55.12.82.18a57.46 57.46 0 0 1 3.06.71c.38.11.8.2 1.28.29l.1.01c.46.09.94.17 1.42.22l.73.08.52.05c1 .1 1.9.17 2.77.2 1.07.03 2.13.04 2.93.04h.18c.76 0 1.53-.03 2.28-.07l.28-.01c.94-.05 1.89-.14 2.89-.28 1.03-.15 1.93-.34 2.73-.6l.1-.03c.4-.13.83-.26 1.24-.42a62.86 62.86 0 0 0 4-1.73c.42-.2.81-.39 1.18-.62a27.78 27.78 0 0 0 3.57-2.68c.32-.3.6-.66.85-.98l.6-.77.24-.32c.28-.36.6-.77.9-1.2a16.14 16.14 0 0 0 1.96-3.81 83.92 83.92 0 0 0 1.24-4 16.8 16.8 0 0 0 .48-2.96l.05-.64.08-.8a75.46 75.46 0 0 0 .17-5.8 36.4 36.4 0 0 0-.2-2.86 173.32 173.32 0 0 0-.5-4.3v-.1l-.2-1.31c-.17-.91-.43-1.82-.69-2.7v-.03l-.4-1.26-.03-.1-.04-.1c-.13-.4-.26-.82-.42-1.22a9.48 9.48 0 0 0-.6-1.23l-.08-.14c-.22-.37-.48-.76-.78-1.2-.5-.73-1.1-1.57-1.8-2.3-.12-.13-.26-.25-.4-.36l-.04-.04a21.27 21.27 0 0 0-1.86-1.34 10.38 10.38 0 0 0-2.58-1.08l-.52-.14c-.46-.13-.93-.26-1.4-.41-.53-.17-1.05-.39-1.56-.6l-.11-.05-.03-.01c-.42-.18-.85-.36-1.3-.5a9.79 9.79 0 0 0-1.25-.34 56.9 56.9 0 0 0-2.84-.43l-1.86-.3a118.53 118.53 0 0 0-2.25-.33 27.6 27.6 0 0 0-1.57-.2c-.34-.03-.72-.04-1.17-.04z" fill="#FFD000"/><path fill-rule="evenodd" clip-rule="evenodd" d="M74.03 44.04l-.04-.11.04.11zm.01.02l.04.09-.05-.1h.01zM58.32 35.7c-.47 0-.93.04-1.39.08a14.46 14.46 0 0 0-2.82.5c-.5.17-.99.34-1.47.55-.39.17-.76.37-1.14.56-.4.2-.8.43-1.19.65a13.5 13.5 0 0 0-4.08 3.97c-.18.25-.34.53-.5.8l-.5.9a8.68 8.68 0 0 0-.86 2.1 12.4 12.4 0 0 0-.08 3.47c.05.35.12.71.19 1.07.04.22.22.43.41.54a.9.9 0 0 0 1.24-.33.96.96 0 0 0 .09-.7c-.06-.3-.12-.6-.16-.9-.08-.8-.08-1.6 0-2.4a4.83 4.83 0 0 1 .35-1.2 21.14 21.14 0 0 1 1.79-3v.01a13.9 13.9 0 0 1 2.08-2.13c.24-.19.49-.36.75-.52.3-.19.61-.35.92-.52.52-.29 1.05-.56 1.6-.8.45-.18.91-.34 1.38-.48.24-.07.48-.11.72-.16l.67-.11c.89-.1 1.78-.17 2.68-.13a23.26 23.26 0 0 1 5.32.76 20.89 20.89 0 0 1 3.87 1.51 8.03 8.03 0 0 1 2.52 2.07c.3.4.55.82.8 1.24.31.51.6 1.02.84 1.57l.15.33-.1-.21a10.8 10.8 0 0 1 .64 2.25c.06.53.1 1.06.1 1.6.02.57.04 1.14-.02 1.7a5.8 5.8 0 0 1-.29 1.07c-.12.35-.26.7-.4 1.04-.11.27-.24.53-.41.77-.25.32-.5.63-.76.93-.26.3-.53.6-.83.85-.32.23-.67.42-1.03.6l-.44-.48c-.33-.37-.95-.33-1.28 0a.9.9 0 0 0-.26.64c0 .25.1.46.26.64.24.27.5.55.77.78.15.13.33.25.53.3.15.05.44.05.6 0a12.2 12.2 0 0 0 1.46-.71c.14-.08.27-.19.4-.29a5.92 5.92 0 0 0 1.28-1.28c.3-.35.6-.7.86-1.07.28-.39.46-.84.63-1.29l.45-1.2c.17-.46.25-.96.28-1.46.04-.49.02-.98.01-1.47-.01-.5-.03-1-.08-1.5-.06-.57-.16-1.13-.3-1.68a14.47 14.47 0 0 0-1.14-2.74l-.3-.5-.32-.55a9.96 9.96 0 0 0-3.75-3.52 24.57 24.57 0 0 0-3.8-1.55 26.1 26.1 0 0 0-6.83-.98h-.11z" fill="#1B1B20"/><path fill-rule="evenodd" clip-rule="evenodd" d="M54.9 43.1zm-2.35-2.3c-.46.12-.79.64-.63 1.1.14.43.27.84.45 1.25.2.47.6.85 1.03 1.12.14.1.28.19.43.26.13.06.26.12.4.16.2.06.41.08.62.1a2.15 2.15 0 0 0 1.03-.2c.22-.13.37-.28.52-.48l.17-.25a.94.94 0 0 0 .25-.62.9.9 0 0 0-.9-.9c-.22 0-.5.08-.64.26-.1.12-.2.25-.28.38h-.14a2.05 2.05 0 0 1-.19-.05 3.74 3.74 0 0 1-.4-.25 2.62 2.62 0 0 1-.2-.19l-.14-.25-.27-.81a.94.94 0 0 0-.42-.54.9.9 0 0 0-.7-.1zM60.72 42.11a.9.9 0 0 0-.54.42.96.96 0 0 0-.1.7c.07.39.13.8.29 1.18a2.54 2.54 0 0 0 1.16 1.32 2.46 2.46 0 0 0 1.8.31c.22-.03.43-.14.62-.23.17-.09.31-.22.45-.34.2-.17.36-.38.5-.59.14-.18.16-.48.1-.7a.9.9 0 0 0-1.11-.63.96.96 0 0 0-.53.4c-.07.09-.15.16-.23.24a2 2 0 0 1-.1.06l-.13.04h-.16a1.92 1.92 0 0 1-.17-.06 3.6 3.6 0 0 1-.33-.2 1.76 1.76 0 0 1-.08-.07 2.36 2.36 0 0 1-.1-.18c-.12-.34-.17-.7-.23-1.04-.04-.22-.23-.43-.42-.54a.9.9 0 0 0-.7-.09zM60.96 50.16a.8.8 0 0 1 .04.03c-.02 0-.03-.02-.04-.03zm-4.64-2.95c-.4.06-.8.2-1.15.39-.48.24-.86.62-1.25.99-.36.33-.34.93 0 1.27.36.36.92.34 1.28 0l.56-.51c.13-.09.26-.16.4-.23.2-.07.39-.12.6-.16h.18l.06.02.05.02c.2.18.36.39.53.6l.33.32c.25.22.53.37.84.48.5.18 1.01.14 1.52.03l.71-.14h.07l.05.21v.37l-.06.24-.09.15-.14.14c-.07.05-.14.1-.22.13-.11.04-.23.06-.35.08-.54.08-1.07.16-1.6.31l-.97.31c-.28.1-.56.2-.85.25h-.18c-.04 0-.07-.02-.1-.03a1.83 1.83 0 0 1-.12-.06l-.27-.3a3.6 3.6 0 0 1-.27-.45 2.56 2.56 0 0 1-.07-.23v-.21c.03-.5-.42-.9-.9-.9-.5 0-.88.4-.9.9-.02.57.14 1.12.44 1.6.16.25.34.48.53.7a2.37 2.37 0 0 0 1.16.73c.14.04.29.04.43.06h.32c.23-.02.46-.07.68-.12.27-.07.53-.17.8-.26.27-.1.54-.18.81-.26.41-.12.83-.19 1.26-.25a4 4 0 0 0 .65-.13 2.76 2.76 0 0 0 1.73-1.79c.06-.18.07-.4.09-.59v-.28c0-.28-.05-.57-.13-.84a1.75 1.75 0 0 0-1.27-1.26c-.4-.09-.82 0-1.23.07-.2.04-.4.1-.6.13h-.24a2.19 2.19 0 0 1-.16-.04 1.8 1.8 0 0 1-.16-.09c-.26-.25-.48-.54-.74-.8a2.29 2.29 0 0 0-.91-.56 1.93 1.93 0 0 0-.6-.07c-.19 0-.37.03-.55.06zM86.03 34.67l-.1.12.1-.12zm2.87-1.71l-.02.02.02-.02zm-.15.24l.07-.12.3-.29c.31-.23.63-.44.94-.68l.67-.55c.33-.24.7-.41 1.06-.59l.99-.5c.35-.2.67-.4 1-.62l.49-.34c.15-.1.3-.17.47-.25.38-.15.77-.27 1.16-.4.5-.15.97-.33 1.47-.45a37.19 37.19 0 0 1 3.05-.64l.15-.01a7.85 7.85 0 0 1 1.76-.04 5.47 5.47 0 0 1 1.9.29c.26.09.52.2.78.31.6.26 1.17.56 1.7.94.26.22.5.46.75.7.3.3.58.6.85.92.26.38.5.77.74 1.16.28.47.58.93.81 1.43.17.43.3.88.43 1.33.14.47.25.95.33 1.44.07.56.11 1.13.13 1.7 0 .56 0 1.14-.07 1.7a3.65 3.65 0 0 1-.26.82 4.43 4.43 0 0 1-.95 1c-.3.22-.6.42-.88.64-.28.2-.57.37-.87.53-.67.33-1.32.68-2 1-.37.15-.75.28-1.14.4-.38.13-.74.28-1.13.35-.16.02-.31.03-.47.03a7.93 7.93 0 0 0-1 .09c-.17.02-.32.1-.46.17-.2.09-.37.3-.46.48-.05.13-.1.22-.12.35l-.03.17c-.04.27-.06.53-.06.8v5.62a24.2 24.2 0 0 1-.55-1.13 65.85 65.85 0 0 1-1.24-3.47l-.13-.4a1.45 1.45 0 0 0-.59-.83 1.1 1.1 0 0 0-.96-.05c-.2.08-.38.16-.57.26-.28.14-.54.3-.81.42l-.76.35c-.36.15-.72.3-1.09.42l-1.3.5c-.77.27-1.55.48-2.36.6-.7.09-1.38.13-2.08.09a7.04 7.04 0 0 1-1.37-.39c-.5-.23-.98-.5-1.42-.82a8.32 8.32 0 0 1-1.63-1.85 5.06 5.06 0 0 1-.5-.96 9.81 9.81 0 0 1-.55-1.86 8.25 8.25 0 0 1 .04-2.22l.18-.95c.07-.32.2-.63.32-.93a18.83 18.83 0 0 1 2.42-4.03c.24-.3.5-.6.79-.86.25-.18.52-.33.8-.48l.03.03c.14.08.3.12.45.12.32 0 .63-.16.78-.45zm11.94-7.27a12.16 12.16 0 0 0-.68.09h-.03l-.04.01h-.02l-.64.1c-.44.08-.87.18-1.3.28-.44.1-.87.19-1.3.3-.42.12-.83.28-1.26.41l-1.17.4c-.41.16-.79.36-1.16.6-.33.24-.67.47-1.02.67-.34.2-.69.37-1.04.54-.39.2-.78.37-1.14.62-.36.24-.67.53-1 .8-.38.27-.79.52-1.13.84a.97.97 0 0 0-.69.09c-.42.22-.84.44-1.24.7-.47.3-.85.73-1.2 1.17a19 19 0 0 0-2.96 5.02 7.1 7.1 0 0 0-.37 1.34c-.1.5-.15 1.01-.19 1.52a7.97 7.97 0 0 0 .3 2.91c.13.5.33.98.53 1.45.18.42.4.8.66 1.16.28.4.57.8.9 1.17a8.56 8.56 0 0 0 3.6 2.27c.9.3 1.83.32 2.77.25a12.56 12.56 0 0 0 3.98-.94l1.37-.51c.75-.28 1.47-.62 2.18-.99 0 .04.02.08.04.12l.3.87c.2.63.44 1.25.68 1.88.26.7.58 1.36.91 2.02l.44.88.34.74c.14.37.28.74.44 1.1.09.2.16.4.28.58.2.28.47.48.82.48.42 0 .8-.3.9-.7.07-.25.08-.53.08-.79l.01-.67v-1.29l.01-5.61v-.95-.63c.27 0 .54 0 .8-.04.29-.04.57-.07.85-.15.17-.04.34-.11.5-.17.44-.15.88-.29 1.3-.46.47-.18.9-.4 1.35-.61.16-.08.3-.17.46-.24.17-.08.34-.17.5-.27l.43-.21.45-.27c.31-.21.61-.45.92-.66a6.56 6.56 0 0 0 1.63-1.57c.14-.18.23-.39.32-.6.1-.22.17-.44.23-.67.06-.26.08-.52.1-.78a15.33 15.33 0 0 0-.52-5.42c-.15-.5-.3-1-.51-1.47-.19-.44-.44-.84-.69-1.24-.46-.74-.89-1.5-1.49-2.15-.6-.63-1.2-1.28-1.94-1.75a8.23 8.23 0 0 0-.7-.4c-.27.04-.53.07-.8.08a2.24 2.24 0 0 1-1.02-.14c-.21-.02-.43-.02-.64-.02h-.82c-.2 0-.38 0-.59-.05a1.35 1.35 0 0 1-.3-.12 1.4 1.4 0 0 1-1.23-.95c-.19 0-.37.01-.55.03z" fill="#1B1B20"/><path fill-rule="evenodd" clip-rule="evenodd" d="M93.97 34.77c0 .5.41.9.9.9.5 0 .9-.4.9-.9 0-.49-.4-.9-.9-.9-.49 0-.9.41-.9.9zM98.47 33.29c0 .49.4.9.9.9s.9-.41.9-.9c0-.5-.4-.9-.9-.9s-.9.4-.9.9zM55.59 22.62c-.9 0-1.78.01-2.67.1a9.4 9.4 0 0 0-2.78.58c-.43.18-.83.38-1.23.62l-1.08.7-.04.02-.56 1.03c-.08.14-.17.26-.29.38-.2.23-.4.3-.66.41-.17.07-.33.08-.5.06l-.1.22c-.16.28-.41.49-.7.6-.24.32-.45.65-.62 1a17.4 17.4 0 0 0-.9 2.32c-.13.45-.17.92-.17 1.38 0 .45.02.9.06 1.35a6.06 6.06 0 0 0 .63 2.22c.31.7.82 1.28 1.32 1.85.48.55 1 1.08 1.53 1.58.27.24.53.5.8.72.37.3.77.55 1.17.8a.9.9 0 0 0 1.23-.32.92.92 0 0 0-.32-1.24c-.25-.15-.5-.31-.74-.48-.25-.2-.48-.41-.71-.63-.26-.23-.52-.46-.76-.7-.5-.53-1-1.07-1.46-1.64a5.23 5.23 0 0 1-.87-2.09 12.54 12.54 0 0 1-.05-1.94c.11-.64.36-1.24.6-1.84a6.48 6.48 0 0 1 .81-1.42c.29-.34.62-.63.94-.94.33-.32.64-.65.99-.94.35-.26.73-.5 1.1-.73.38-.25.77-.46 1.17-.65.27-.1.54-.2.83-.26.3-.07.62-.13.94-.18.95-.1 1.9-.12 2.86-.13.51 0 1.02-.02 1.53 0 .47 0 .94.05 1.41.1a15.43 15.43 0 0 1 4.89 1.57c.33.19.64.4.95.62.33.27.66.53.98.81.2.16.38.33.56.5a9.35 9.35 0 0 1 1.52 2.28c.18.44.34.87.42 1.33a14.27 14.27 0 0 1 .03 2.22c-.06.39-.13.78-.27 1.15-.13.29-.27.58-.43.85-.08.14-.17.26-.24.4l-.21.57-.15.24c-.14.19-.15.48-.1.7a.91.91 0 0 0 1.12.63c.24-.07.4-.22.54-.42.19-.26.3-.57.4-.87l.22-.38c.12-.2.22-.42.33-.63.11-.24.22-.48.31-.72.08-.2.12-.43.16-.64.07-.44.14-.88.16-1.33v-.55l-.02-.65a6.95 6.95 0 0 0-.17-1.37 10.69 10.69 0 0 0-1.62-3.23c-.32-.41-.66-.8-1.04-1.14-.3-.29-.63-.55-.96-.81-.36-.28-.72-.57-1.1-.83a6.98 6.98 0 0 0-1.1-.59c-.85-.37-1.7-.73-2.6-1a16.92 16.92 0 0 0-5.3-.62z" fill="#1B1B20"/><path fill-rule="evenodd" clip-rule="evenodd" d="M53.06 28.77c0 .5.41.9.9.9.5 0 .9-.4.9-.9s-.4-.9-.9-.9c-.49 0-.9.4-.9.9zM57.56 29.63c0 .5.41.9.9.9.5 0 .9-.4.9-.9 0-.49-.4-.9-.9-.9-.49 0-.9.41-.9.9zM61.87 34.77l-.04.01h.04zm-12.3-3.2a.92.92 0 0 0 0 1.27c.32.32.63.65.93.98.34.38.79.66 1.22.94.16.1.3.22.49.3l.74.3c.17.05.34.12.5.18l.55.2c.51.23 1.02.46 1.57.58.46.09.92.1 1.39.1.47.01.94.03 1.4-.06l.25-.05c.1-.02.2-.06.3-.1l.26-.07c.12-.04.23-.1.34-.15l.2-.08.4-.18.09-.03c.13-.03.26-.1.39-.16h-.02c.07-.02.14-.06.2-.09a7.77 7.77 0 0 0 1.28-.67c.46-.03.82-.46.82-.9a.92.92 0 0 0-.9-.91c-.27-.02-.54.06-.77.2a3.82 3.82 0 0 1-.66.43l-.3.13-.36.16-.18.08-.4.15-.18.09a7.51 7.51 0 0 0-.48.2l-.35.11c-.13.05-.26.08-.4.1-.3.02-.6 0-.9 0-.27 0-.56 0-.84-.03a4.81 4.81 0 0 1-.92-.26l-.46-.21c-.26-.11-.53-.2-.8-.3l-.93-.36c-.16-.08-.3-.19-.45-.29-.17-.1-.33-.2-.48-.32-.2-.17-.37-.35-.55-.55l-.7-.74a.9.9 0 0 0-1.28 0zM53.36 50.32c0 .5.41.9.9.9.5 0 .9-.4.9-.9 0-.49-.4-.9-.9-.9-.49 0-.9.41-.9.9zM93.78 27a.8.8 0 0 1-.02.04l.02-.03zm-6.08-9.5c-.52.03-1.03.09-1.55.14l-1.76.2c.06 0 .11 0 .17-.02-.5.07-.98.13-1.47.22l-1.28.24c-.88.16-1.73.44-2.57.76-.97.37-1.93.84-2.74 1.5-.73.6-1.37 1.3-2.02 1.98-.63.66-1.3 1.26-1.95 1.9-.38.38-.7.82-1.02 1.25-.32.42-.61.87-.85 1.35-.15.3-.26.63-.38.95a12.53 12.53 0 0 0-.57 2.04c-.2.95-.32 1.93-.26 2.9.03.4.1.8.16 1.19a16.47 16.47 0 0 0 .77 2.87c.12.32.25.64.4.96.16.33.39.64.64.9.48.5 1.04.92 1.57 1.36.2.15.38.26.64.26a.9.9 0 0 0 .9-.9c0-.22-.1-.5-.27-.64l-.98-.82a6.9 6.9 0 0 1-.72-.7c-.13-.2-.24-.41-.34-.64-.22-.56-.4-1.14-.57-1.72-.09-.32-.15-.65-.22-.98l-.14-.83a7.43 7.43 0 0 1 .03-2.06c.1-.54.2-1.08.34-1.61.14-.54.34-1.07.54-1.59.26-.54.61-1.04.97-1.52.15-.2.3-.38.47-.56.2-.22.42-.43.64-.64.37-.36.77-.71 1.13-1.09.76-.77 1.48-1.58 2.3-2.28.54-.38 1.12-.7 1.71-.97.77-.3 1.55-.58 2.35-.77.42-.1.86-.18 1.28-.25.39-.07.78-.15 1.17-.2l.65-.09c.53-.07 1.06-.11 1.6-.17.51-.06 1.02-.1 1.54-.12.53-.03 1.06-.06 1.59-.05a7.97 7.97 0 0 1 2.87.48c.19.09.37.18.55.3.12.1.23.21.34.34.17.23.32.47.44.73.15.42.24.86.3 1.3l.14.94a11.51 11.51 0 0 1 .07 1.67c-.07.34-.2.68-.29 1.02-.1.34-.18.7-.29 1.05-.32.34-.3.91.03 1.25.35.35.92.34 1.28 0 .3-.3.42-.69.52-1.08l.17-.62.17-.6c.07-.22.14-.43.17-.65.03-.19.05-.37.06-.56v-.4l-.04-.64c-.03-.43-.1-.85-.17-1.28a6.8 6.8 0 0 0-.68-2.55 4.3 4.3 0 0 0-.28-.44c-.14-.2-.28-.4-.45-.57-.2-.19-.4-.35-.62-.5-.2-.13-.4-.23-.61-.32a9.5 9.5 0 0 0-3.87-.67c-.57 0-1.15.02-1.71.05z" fill="#1B1B20"/><path fill-rule="evenodd" clip-rule="evenodd" d="M72.95 38.4a.9.9 0 0 0-.63 1.11c.06.21.21.45.42.54l.87.41a4.71 4.71 0 0 0 2.13.53c.28.02.57.02.86.03h3.1c.2 0 .41-.02.61-.06.48-.1.76-.66.63-1.11a.9.9 0 0 0-.41-.54.94.94 0 0 0-.7-.1H78.8a558.52 558.52 0 0 1-2.35 0c-.36 0-.73-.01-1.08-.05a4.3 4.3 0 0 1-.77-.22c-.32-.14-.63-.3-.95-.45a1.11 1.11 0 0 0-.48-.12.83.83 0 0 0-.22.03zM80.27 25.92c0 .5.4.9.9.9s.9-.4.9-.9c0-.49-.4-.9-.9-.9s-.9.41-.9.9zM84.59 24.55c0 .49.4.9.9.9.49 0 .9-.41.9-.9 0-.5-.41-.9-.9-.9-.5 0-.9.4-.9.9zM82.63 32.7l.03.02a.8.8 0 0 1-.03-.02zm.04-.01h.02-.02zm-.16-.12zm.05 0l.03.08a.81.81 0 0 1-.03-.09zm3.16-1.74c0 .11 0 .22-.02.33l-.1.43-.1.19-.23.22c-.18.14-.38.26-.58.35l-.59.21c-.2.06-.4.1-.6.14-.21.02-.42.03-.64.02a2.52 2.52 0 0 1-.24-.06v-.06l.05-.16c0-.03.02-.05.03-.07l.07-.06.22-.13c.29-.1.58-.16.87-.22.39-.1.64-.47.66-.85l.24-.1c.18-.08.35-.15.54-.2l.42.02zM84.7 29.1l-.4.15a8.3 8.3 0 0 0-1.33.67c-.23.16-.43.35-.6.57-.14.05-.27.12-.4.18-.4.21-.75.57-.93.99a2.59 2.59 0 0 0-.22 1.15c.02.25.08.44.18.67.33.79 1.24 1.03 2.02 1.05a6.05 6.05 0 0 0 2.67-.66 4.82 4.82 0 0 0 .97-.7 2.76 2.76 0 0 0 .7-1.18c.09-.28.12-.58.15-.87.03-.29 0-.57-.07-.85-.09-.38-.35-.77-.68-.96a2.6 2.6 0 0 0-1.36-.3c-.24 0-.47.03-.7.1z" fill="#1B1B20"/><path fill-rule="evenodd" clip-rule="evenodd" d="M78.15 49.72zm1.42-10.19a.87.87 0 0 0-.41.54c-.1.54-.21 1.07-.35 1.6l-.38 1.44c-.13.5-.2 1-.27 1.5l-.23 1.62v-.02c-.1.63-.19 1.26-.24 1.9l-.04.82-.08.87-.04.37c-.03.35.04.72.3.97.18.19.4.27.66.29.2.02.37-.05.55-.13.23-.11.41-.31.6-.5.37-.37.7-.8 1.03-1.22l.75-.9c.18-.22.36-.44.53-.68.18-.24.3-.5.4-.78.1-.22.03-.51-.08-.7a.9.9 0 0 0-1.23-.32l-.2.14a.9.9 0 0 0-.22.38 3.5 3.5 0 0 1-.26.42l-.86 1.05.07-.84.14-.94-.01.07.22-1.5c.08-.5.15-.99.27-1.47.11-.45.25-.9.36-1.36.14-.53.24-1.06.35-1.6a.95.95 0 0 0-.1-.7.9.9 0 0 0-1.23-.32zM101.93 26.76c-.08.22-.03.5.09.7a.9.9 0 0 0 1.23.32.94.94 0 0 0 .42-.54l.08-.21h-.4c-.2 0-.37-.01-.58-.06a1.4 1.4 0 0 1-.3-.12 2.34 2.34 0 0 1-.27-.05 1.28 1.28 0 0 1-.26-.09l-.01.05zM71.63 10.64c-.45.09-.9.2-1.34.3a13.8 13.8 0 0 0-3.93 1.6 17.7 17.7 0 0 0-4.11 3.48 8.52 8.52 0 0 0-1.54 2.6c-.17.43-.35.87-.5 1.32a8.59 8.59 0 0 0-.37 2.76c.05.52.2 1.02.35 1.52.14.47.63.77 1.11.63a.91.91 0 0 0 .63-1.1c-.1-.38-.22-.75-.29-1.13-.02-.3 0-.61.03-.92a9.56 9.56 0 0 1 .8-2.65 9.22 9.22 0 0 1 .92-1.58c.19-.23.37-.45.57-.66l.73-.72a13.09 13.09 0 0 1 2.69-2.05c.48-.27.96-.54 1.46-.77a26.87 26.87 0 0 1 4.27-1.07c.8-.08 1.6-.1 2.39-.01a7.78 7.78 0 0 1 2.17.74c.32.17.62.37.92.59.13.11.26.23.38.36.19.28.34.58.48.89.23.63.38 1.27.48 1.93a14.06 14.06 0 0 1 .03 2.72v.08a.97.97 0 0 0 .08.7.9.9 0 0 0 1.24.32c.18-.11.37-.32.41-.54.16-.9.15-1.81.1-2.72a10.7 10.7 0 0 0-.51-2.72 7.6 7.6 0 0 0-.59-1.32 3.92 3.92 0 0 0-.5-.68c-.19-.21-.42-.38-.65-.55a8.8 8.8 0 0 0-3.62-1.56 11.27 11.27 0 0 0-4.3.2z" fill="#1B1B20"/><path fill-rule="evenodd" clip-rule="evenodd" d="M66.79 17.57c0 .5.4.9.9.9.49 0 .9-.4.9-.9 0-.49-.41-.9-.9-.9-.5 0-.9.41-.9.9zM71.04 16.86c0 .5.41.9.9.9.5 0 .9-.4.9-.9s-.4-.9-.9-.9c-.49 0-.9.4-.9.9zM67.2 21.59a.91.91 0 0 0-.1.7c.07.23.22.4.42.53l.67.44c.23.14.47.25.73.36.43.18.9.17 1.36.07.33-.07.63-.25.92-.4.2-.1.36-.32.42-.53a.9.9 0 0 0-.63-1.12.95.95 0 0 0-.7.1l-.3.15a2.2 2.2 0 0 1-.25.07h-.08a2.63 2.63 0 0 1-.2-.07c-.37-.18-.7-.4-1.03-.63a.78.78 0 0 0-.43-.12.95.95 0 0 0-.8.45zM97.1 40.32c-.02.25.06.49.22.67.17.18.38.27.62.3l.79.08c.27.03.53.01.8 0 .48-.04.9-.25 1.26-.55.26-.21.45-.5.65-.77a.88.88 0 0 0 .13-.67.9.9 0 0 0-1.06-.71.95.95 0 0 0-.59.4l-.2.27-.19.17-.07.04-.22.03c-.4 0-.8-.05-1.19-.1a.78.78 0 0 0-.44.08.95.95 0 0 0-.52.76zM104.82 12.17c-.9 0-1.8.02-2.68.08a11.1 11.1 0 0 0-2.73.51c-.94.3-1.82.72-2.68 1.19-.8.43-1.56.9-2.26 1.49-.43.36-.84.75-1.2 1.2-.24.3-.45.6-.62.95-.18.37-.28.77-.39 1.16-.14.48.16.99.63 1.11a.91.91 0 0 0 1.11-.63c.08-.27.15-.54.25-.8.1-.2.2-.38.33-.56a8.8 8.8 0 0 1 2.65-2.14 11.53 11.53 0 0 1 4.24-1.62c.89-.1 1.77-.1 2.66-.12l1.29-.01a4.73 4.73 0 0 1 2.14.3c.14.05.28.12.4.2a6.78 6.78 0 0 1 1.2 1.68c.19.46.33.92.41 1.4.07.61.1 1.24.04 1.84-.09.5-.24 1-.42 1.48-.1.23-.23.44-.37.65l-.44.6-.76.92c.17.01.35.04.52.09l.45-.05c.32-.02.65.04.94.17l.26-.03.28-.38c.25-.33.5-.66.67-1.04a8.47 8.47 0 0 0 .7-2.8c.01-.24 0-.48-.01-.72a8.92 8.92 0 0 0-.32-2.07c-.15-.43-.31-.87-.54-1.28-.19-.32-.42-.62-.64-.92-.14-.19-.28-.38-.43-.55a2.98 2.98 0 0 0-1.16-.82c-.25-.1-.5-.2-.76-.28-.7-.17-1.43-.2-2.16-.2h-.6zM104.18 27.02h-.66a3.96 3.96 0 0 0 1.18.01h-.52z" fill="#1B1B20"/><path fill-rule="evenodd" clip-rule="evenodd" d="M97.88 19.37c0 .5.41.9.9.9.5 0 .9-.4.9-.9s-.4-.9-.9-.9c-.49 0-.9.4-.9.9zM101.06 17.74c0 .5.41.9.9.9.5 0 .9-.4.9-.9s-.4-.9-.9-.9c-.49 0-.9.4-.9.9zM100.86 22.62c-.1.08-.2.15-.3.2l-.27.07c-.17.02-.35.02-.52.03-.49.02-.9.4-.9.9 0 .48.41.93.9.9.22 0 .44 0 .65-.03a2.64 2.64 0 0 0 1.35-.5c.2-.15.35-.3.42-.54a.91.91 0 0 0-.63-1.12.97.97 0 0 0-.26-.03.76.76 0 0 0-.44.12zM75.85 41.27a3.45 3.45 0 0 0-1.65.5c-.14.07-.28.16-.42.25a.92.92 0 0 0-.32 1.23c.24.42.82.6 1.24.33.2-.13.4-.26.62-.37a3 3 0 0 1 .53-.14.94.94 0 0 0 .64-.26.9.9 0 0 0 .26-.64c0-.45-.38-.9-.85-.9h-.05zM89.6 55.8l.24.02c-.08 0-.15-.02-.23-.03zm-5.78-4.5a.9.9 0 0 0-.54.43.96.96 0 0 0-.09.7c.07.36.12.74.24 1.1.08.2.17.42.29.61.11.2.26.37.4.55a5.81 5.81 0 0 0 1.47 1.33c.47.32.93.66 1.44.92.33.16.67.31 1.02.41.36.1.73.14 1.1.19.6.08 1.22.17 1.84.17.31 0 .62-.05.92-.13l.33-.12c.17-.06.35-.11.54-.15.48-.1.75-.66.63-1.11a.91.91 0 0 0-.42-.54.95.95 0 0 0-.7-.1c-.38.09-.74.25-1.12.33-.44.04-.89-.01-1.32-.07l-.78-.1a4.5 4.5 0 0 1-.85-.22 6.64 6.64 0 0 1-1.05-.58l-.95-.65c-.3-.26-.57-.55-.82-.86a3.25 3.25 0 0 1-.21-.35c-.13-.36-.2-.74-.26-1.12a.9.9 0 0 0-1.11-.63zM43.7 81.68c.01.53.03 1.05 0 1.57l-.07 1.37c-.04.96-.05 1.92-.12 2.88l-.07 1.33c-.02.46-.08.92-.1 1.38l-.1 1.43c-.02.46-.07.93-.1 1.4-.03.58-.06 1.16-.12 1.74-.05.57-.09 1.13-.11 1.7l-.06 1.7-.12 1.9c-.02.5.43.9.9.9.52 0 .89-.4.9-.9.05-.94.14-1.88.16-2.82.02-.9.08-1.81.16-2.72.04-.43.06-.86.08-1.3l.11-1.45c.04-.46.05-.92.08-1.38l.11-1.4c.05-.6.07-1.2.1-1.79.05-.6.06-1.19.07-1.78l.08-1.78c.02-.32.04-.64.04-.96v-1.02c-.01-.49-.41-.9-.91-.9-.49 0-.9.41-.9.9zM112.33 81.96v1.51c0 .48-.03.96-.05 1.43-.06.98-.09 1.96-.1 2.94-.03 1.84-.02 3.68-.02 5.51a31 31 0 0 1-.07 1.8c-.04.6-.05 1.2-.08 1.79-.03.59-.08 1.17-.12 1.76-.03.54-.03 1.08-.08 1.61l-.04.21a.95.95 0 0 0 .1.7c.11.2.3.35.53.42.24.06.5.03.7-.1a.87.87 0 0 0 .41-.54c.06-.3.1-.6.13-.92l.02-.68.08-1.28.09-1.38.05-1.38.08-1.36V92.6v-2.81c.01-1.29.02-2.58.07-3.86.03-.67.08-1.33.1-1.99.03-.65 0-1.31 0-1.97 0-.49-.4-.9-.9-.9-.49 0-.9.4-.9.9zM102.46 25.9l-.85.01a37 37 0 0 0-1.82.1.94.94 0 0 0-.64.26.9.9 0 0 0-.26.64c0 .47.41.94.9.9a40.94 40.94 0 0 1 2.39-.1c.22 0 .44 0 .66.02l.55.08c.24.04.48.1.7.16.25.06.48.12.72.2.28.12.57.25.86.36.33.15.67.3.97.5.11.09.21.19.3.3l.06.06c.14.2.3.35.54.42a.9.9 0 0 0 1.02-1.33 3.5 3.5 0 0 0-1.37-1.22c-.48-.24-.97-.44-1.46-.64l-.51-.22c-.2-.07-.4-.1-.59-.16l-.54-.13-.59-.1c-.34-.05-.68-.1-1.03-.1z" fill="#1B1B20"/><path fill-rule="evenodd" clip-rule="evenodd" d="M109.44 20.94a.9.9 0 0 0-.4.24c-.22.17-.38.4-.52.63l-.16.29-.23.24-.32.33c-.2.2-.4.38-.62.56l-.37.25a12.14 12.14 0 0 0-.45.32l-.49.32-.54.36-.51.33a3.9 3.9 0 0 1-.53.3 11.27 11.27 0 0 0-1.4.68l-1.3.73a.91.91 0 0 0-.33 1.24c.26.43.8.56 1.24.33l1.15-.65c.35-.2.7-.4 1.06-.57.28-.11.57-.22.83-.37l.3-.2.33-.2c.2-.14.4-.29.61-.42a8.73 8.73 0 0 0 .56-.37c.26-.2.54-.37.8-.56.29-.2.54-.44.8-.67.2-.18.38-.38.56-.58.17-.17.33-.34.45-.54l.1-.2.11-.18.15-.13c.18-.13.27-.42.27-.63a.9.9 0 0 0-.9-.9l-.25.02zM43.29 50.9a.9.9 0 0 0-.42.54.96.96 0 0 0 .1.7c.2.42.38.85.6 1.27.2.37.46.7.71 1.06l.74 1.04a18.3 18.3 0 0 0 1.07 1.39 5.94 5.94 0 0 1 1.6-.24c.22 0 .44.01.66.04-.5-.52-.97-1.06-1.43-1.62-.42-.57-.8-1.16-1.23-1.72a7.8 7.8 0 0 1-.6-.95c-.21-.39-.38-.79-.57-1.18a.88.88 0 0 0-.78-.45.9.9 0 0 0-.45.12zM31.68 62.91a.91.91 0 0 0-.63 1.11c.33.9.76 1.75 1.15 2.61l1.07 2.39.53 1.12a18.22 18.22 0 0 0 2.1 3.46c.47.6 1 1.14 1.57 1.65l.95.85c.3.27.6.55.92.8.15.12.3.26.46.37l.57.4c.66.43 1.41.74 2.14 1.05.46.2.91.4 1.37.57.41.17.83.31 1.25.46.81.3 1.61.61 2.44.86.41.12.83.22 1.25.32.47.1.93.22 1.4.33.91.22 1.83.46 2.76.65.45.1.9.15 1.36.21.45.07.9.17 1.35.25.91.18 1.82.4 2.74.55.98.16 1.97.32 2.97.4.93.06 1.86.08 2.8.07.65 0 1.3-.05 1.95-.14.63-.08 1.26-.2 1.9-.29a5.38 5.38 0 0 1-1.74-1.54l-.26.04c-.46.06-.91.1-1.37.12a37.78 37.78 0 0 1-3.36-.08 38.04 38.04 0 0 1-4.07-.64c-.93-.2-1.86-.4-2.8-.53-.93-.13-1.82-.34-2.72-.56l-2.79-.67c-.84-.2-1.66-.48-2.49-.78-.85-.31-1.72-.61-2.56-.96l-.8-.34.1.03a9.8 9.8 0 0 1-2.4-1.3c-.66-.52-1.28-1.09-1.9-1.64a14.4 14.4 0 0 1-1.65-1.7c-.46-.64-.9-1.3-1.28-1.99a46.38 46.38 0 0 1-1.54-3.24l-.52-1.14-.51-1.14-.45-.97-.15-.39a.97.97 0 0 0-.42-.54.9.9 0 0 0-.69-.09zM75.03 64.08a1 1 0 0 0-.77-.52c.27.14.53.32.77.52z" fill="#1B1B20"/><path fill-rule="evenodd" clip-rule="evenodd" d="M78.44 59.82l-.06.04.06-.04zm18.74-3.02v0zm-9.64-1.34c-.89.08-1.75.35-2.6.63-.39.13-.78.25-1.18.4-.44.16-.89.35-1.3.58-.41.2-.8.46-1.18.7-.41.24-.8.5-1.19.79l-1.2.91-.02.02-.02.01-.04.04-.25.19c-.57.43-1.14.87-1.68 1.35-.47.4-.94.81-1.42 1.2-.47.39-.94.76-1.37 1.17.54.29 1.03.66 1.45 1.1.3-.27.62-.52.93-.77l1.27-1.06c.44-.39.88-.77 1.34-1.13l.58-.44.54-.42c.6-.46 1.2-.93 1.84-1.31l1.08-.66c.28-.16.58-.3.88-.43.58-.24 1.18-.43 1.79-.61l.99-.29.11-.03-.15.26a8.9 8.9 0 0 1-.45.65c-.5.6-1.05 1.15-1.59 1.72-.58.63-1.15 1.28-1.74 1.9-.31.34-.63.66-.91 1.01-.27.33-.55.64-.84.95l-.83.86c-.12.13-.25.26-.36.4-.19.22-.34.46-.34.77 0 .16.04.33.13.47.13.23.32.34.56.43.36.13.8-.1 1.1-.27l.5-.31c.35-.23.7-.45 1.04-.7.76-.54 1.54-1.09 2.28-1.66l-.18.14c.74-.56 1.48-1.1 2.27-1.57.74-.45 1.52-.85 2.26-1.3l1.22-.73 1.14-.7a47.54 47.54 0 0 1 3.59-1.96c.39-.15.78-.27 1.2-.36l-.03.02c-.17.2-.36.36-.56.53l-.6.47-1.55 1.19c-.7.53-1.39 1.08-2.12 1.57l-1.06.7-1.2.82c-.75.51-1.52.98-2.28 1.49a29.5 29.5 0 0 0-2.64 1.96c-.17.15-.38.34-.49.54a.9.9 0 0 0 .32 1.24c.26.14.55.17.83.06a7.3 7.3 0 0 0 1-.5l1.19-.64c.4-.23.79-.49 1.18-.73l1.27-.78c.79-.47 1.62-.88 2.45-1.3.83-.41 1.66-.85 2.5-1.26.56-.28 1.14-.52 1.7-.8.57-.28 1.13-.57 1.71-.82.38-.16.76-.31 1.15-.45.38-.12.77-.2 1.16-.26.74-.08 1.5-.13 2.24-.1-.36.4-.77.77-1.18 1.14-.5.44-1.01.86-1.53 1.27-.71.53-1.44 1.04-2.18 1.54l-1.2.79c-.37.23-.75.45-1.13.66-.39.22-.8.4-1.2.61l-1.31.68a140.56 140.56 0 0 1-3.2 1.61l.51-.1c.18-.04.37-.07.54-.12.22-.05.42-.15.63-.22.4-.14.78-.23 1.18-.3l.25-.03c.58-.1 1.15-.26 1.71-.4.38-.1.77-.17 1.15-.23.36-.06.71-.16 1.07-.23.7-.14 1.4-.28 2.07-.47l.7-.15a1.45 1.45 0 0 1 .56-1.04 61.33 61.33 0 0 0-.93.16 34.07 34.07 0 0 0 3.88-3.02c.34-.32.67-.64.98-.98.18-.22.35-.45.5-.69.08-.11.13-.24.18-.37l.06-.16c.04-.13.06-.27.07-.4-.02-.2-.02-.42-.14-.6l-.2-.27a4.5 4.5 0 0 0-.3-.22l-.21-.1a1.02 1.02 0 0 0-.24-.07c-.14-.04-.3-.06-.44-.07l-.36-.02c-.23-.02-.46-.02-.69-.02a17.72 17.72 0 0 0-2.96.3c-.45.1-.88.26-1.3.43-.5.2-.99.4-1.47.64l-.59.3 1.4-1.1a4.62 4.62 0 0 0 .97-1.14c.15-.21.25-.46.33-.7.04-.13.05-.32.04-.46a1.35 1.35 0 0 0-.74-1.13 1.98 1.98 0 0 0-1.13-.15 8.12 8.12 0 0 0-2.8.85c-.83.4-1.66.87-2.47 1.33-.68.4-1.34.82-2 1.23-.67.41-1.34.8-2.02 1.19-.52.3-1.04.58-1.55.9l.1-.12a16.2 16.2 0 0 0 1.7-2c.28-.4.57-.83.74-1.28.08-.22.14-.45.15-.69.01-.28-.05-.53-.16-.8a1.24 1.24 0 0 0-1.26-.67zM78.88 59.48h.01z" fill="#1B1B20"/><path fill-rule="evenodd" clip-rule="evenodd" d="M78.9 59.47l.02-.02-.03.02zM79.66 61.15v-.01zM78.85 59.5zM43.77 35.1c-.47 1.95-.94 3.9-1.36 5.86-.05.2-.07.42-.1.62a27.16 27.16 0 0 0-.23 2.3c-.04.92-.02 1.84 0 2.76 0 .59.03 1.17.08 1.76.05.65.16 1.3.36 1.92.16.5.33 1.02.47 1.54.16.59.28 1.18.37 1.8.03.2.24.42.42.53a.9.9 0 0 0 1.23-.32l.1-.22a.91.91 0 0 0 0-.48c-.07-.41-.14-.82-.23-1.22-.09-.38-.2-.76-.31-1.14l-.32-1c-.11-.36-.2-.72-.25-1.1-.12-1.06-.12-2.13-.13-3.2 0-.59 0-1.17.02-1.75a19.93 19.93 0 0 1 .25-2.27c.04-.28.12-.56.18-.84l.34-1.52.85-3.55a.92.92 0 0 0-.63-1.11.9.9 0 0 0-1.11.63zM27.39 42.94a.94.94 0 0 0-.27.64c-.05.96-.13 1.92-.12 2.88a81.65 81.65 0 0 0 .14 4l.15 1.36c.05.5.1 1 .17 1.49l.23 1.3c.14.88.34 1.74.55 2.6.2.84.47 1.65.7 2.47.12.44.23.88.38 1.3l.4 1.17a11.84 11.84 0 0 0 1.13 2.57c.21.38.45.75.7 1.11l.88 1.35c.26.41.8.58 1.23.32.42-.24.6-.82.33-1.23l-.69-1.05a19.28 19.28 0 0 1-1.51-2.62c-.14-.36-.26-.72-.38-1.08l-.4-1.14-.37-1.33-.38-1.27a33.02 33.02 0 0 1-.86-3.84c-.07-.4-.15-.79-.21-1.2l-.1-.92c-.04-.38-.09-.76-.12-1.15-.08-.78-.1-1.56-.13-2.35-.02-.76-.04-1.51-.04-2.27 0-.36.03-.72.05-1.08l.08-1.39c.03-.49-.43-.9-.9-.9a.9.9 0 0 0-.64.26zM92.32 66.87l-.23.05.23-.05zm16.45-8.12c.17.16.28.39.3.63a.98.98 0 0 1-.25.67c-.29.38-.57.77-.88 1.13-.28.33-.61.61-.94.9l-.95.88c-.39.35-.78.69-1.2 1-.38.31-.79.59-1.2.87a13.37 13.37 0 0 1-2.52 1.39c-.4.16-.8.35-1.2.52l-.78.32a30.71 30.71 0 0 1-2.54.77 59.83 59.83 0 0 1-4.94 1c-.42.06-.85.1-1.27.12-.91.06-1.83.06-2.74.06-.48 0-.95-.03-1.43-.06a30.1 30.1 0 0 1-1.55-.12l-1.46-.17-1.35-.18c-.62-.09-1.24-.14-1.86-.22a14.92 14.92 0 0 1-3.62-1.03c-.27-.13-.54-.26-.8-.41l-.03-.02-.1.44c-.09.45-.17.9-.23 1.35l-.2 1.27c-.07.43-.1.86-.16 1.29-.05.42-.07.85-.11 1.27-.05.48-.11.95-.15 1.43-.08.89-.2 1.77-.3 2.66-.05.76-.08 1.53-.2 2.3-.1.72-.18 1.45-.26 2.18a4.42 4.42 0 0 0 .04.78l.04.07a3.34 3.34 0 0 0 .93.66l.69.3 1.75.6 1.13.42 1.02.4c.44.16.89.32 1.34.43a38.2 38.2 0 0 0 3.37.65c.49.07.98.1 1.47.15.9.06 1.81.1 2.72.1.97 0 1.94 0 2.9.08.95.08 1.9.06 2.84.04.97-.03 1.94-.04 2.92-.06.88-.02 1.76-.12 2.65-.24.92-.12 1.84-.23 2.76-.4l1-.19-.23.05c.47-.1.94-.18 1.4-.3a10.02 10.02 0 0 0 1.28-.47c.76-.39 1.5-.81 2.23-1.23.7-.4 1.39-.83 2.02-1.34.6-.53 1.17-1.1 1.7-1.7.55-.61 1.04-1.27 1.54-1.92l.7-.97.77-1.02.76-1.03.66-.86.23-.36c.14-.2.29-.37.53-.45a.92.92 0 0 1 1.1 1.31c-.53.81-1.14 1.57-1.71 2.35l-1.59 2.14c-.25.34-.5.68-.77 1a18.52 18.52 0 0 1-2.85 2.99c-.6.5-1.24.92-1.91 1.3l-1.14.65-1.09.6c-.17.08-.35.19-.54.26-.21.1-.43.18-.64.27-.76.3-1.58.43-2.38.58-.49.1-.98.2-1.48.28l-1.34.18c-.88.11-1.75.26-2.63.32-.43.04-.87.04-1.3.05l-1.47.02c-.96.02-1.93.06-2.9.05-.46 0-.93-.05-1.4-.08-.46-.04-.93-.04-1.4-.05-.94-.02-1.9 0-2.85-.05-1.01-.06-2.03-.12-3.04-.26-.94-.13-1.87-.32-2.8-.53-.65-.14-1.29-.34-1.92-.56-.63-.23-1.24-.5-1.87-.73l-1.02-.35-1.29-.45a7 7 0 0 1-1.07-.51 4.76 4.76 0 0 1-1.03-.77 2.07 2.07 0 0 1-.64-1.28c-.03-.19-.03-.38-.03-.57 0-.44.06-.89.11-1.32l.13-1.17c.06-.4.12-.81.16-1.22.03-.42.05-.83.09-1.24.04-.52.1-1.05.16-1.57.05-.47.11-.93.15-1.4l.15-1.46c.08-.9.17-1.82.31-2.73l.2-1.32c.07-.46.17-.9.26-1.36.1-.42.16-.88.34-1.28a1.1 1.1 0 0 1 1.3-.65c.27.06.5.23.72.37.57.33 1.15.62 1.76.85.6.2 1.21.36 1.83.5.66.14 1.33.2 2 .27l1.8.23c.67.07 1.34.17 2 .23a35.2 35.2 0 0 0 3.52.09c.54-.02 1.08-.02 1.61-.07.58-.05 1.14-.12 1.71-.22l.6-.1 1.99-.43c.76-.16 1.51-.35 2.26-.58l.96-.3c.37-.12.72-.26 1.08-.41l.98-.43.82-.35a19.34 19.34 0 0 0 3.23-2.15c.54-.47 1.06-.98 1.6-1.45.29-.26.56-.52.81-.81.3-.34.55-.7.82-1.06a.9.9 0 0 1 .87-.27c.16.03.3.1.43.22z" fill="#1B1B20"/><path fill-rule="evenodd" clip-rule="evenodd" d="M52.53 72.26a.64.64 0 0 0-.03.04l.03-.04zm.13-.28a22.7 22.7 0 0 1 0 0zm5.04-6.02zm-10.17-3.73l-.05.01h.05v-.01zm.54-.38a.49.49 0 0 0-.03.05l.03-.05zm23.73-1.89l.05.06-.05-.06zm-.4-.46l.07.07a13 13 0 0 0-.06-.07zm-17.6-6.62l-.02.02.01-.02zm9.88.76c.87.27 1.67.73 2.45 1.2.37.2.73.42 1.1.64.4.26.8.56 1.18.87.35.3.68.64 1.02.95.35.34.69.68 1 1.05l1.07 1.25.2.25c.48.56.95 1.12 1.39 1.7.38.52.75 1.03 1.15 1.53.38.48.79.96 1.13 1.47.38.59.71 1.2 1.05 1.81.12.22.18.45.13.7a.93.93 0 0 1-.4.58c-.41.26-1.03.16-1.28-.28-.3-.54-.6-1.08-.92-1.61-.3-.5-.68-.95-1.04-1.4L71.88 63c-.36-.48-.72-.96-1.1-1.42a116 116 0 0 1-.62-.75l.15.19-.45-.54c-.5-.59-1-1.18-1.55-1.7l-.94-.9c-.24-.22-.5-.42-.78-.62-.53-.36-1.09-.69-1.65-1-.3-.17-.6-.34-.92-.5a7.36 7.36 0 0 0-.11-.06l.1.3c.09.25.2.5.3.74.37.7.8 1.38 1.2 2.07.46.75.88 1.52 1.33 2.27.24.4.48.8.7 1.2.19.38.4.76.62 1.12.2.36.44.7.64 1.05.1.16.19.31.27.47.14.26.24.54.18.84a1 1 0 0 1-.23.45 1 1 0 0 1-.66.3c-.39.05-.77-.26-1.04-.5a8.42 8.42 0 0 1-.43-.43c-.3-.3-.6-.6-.88-.91-.64-.72-1.3-1.43-1.91-2.17l.15.18a27.19 27.19 0 0 0-1.92-2.06c-.65-.6-1.33-1.17-1.98-1.78l-1.05-.99-.98-.96a48.38 48.38 0 0 0-3.15-2.72 8.85 8.85 0 0 0-1.11-.62l.01.02c.13.23.29.44.45.65l.49.6 1.29 1.52c.58.69 1.15 1.38 1.76 2.03.3.31.62.61.92.93l1 1.07c.64.68 1.31 1.32 1.96 1.99a30.16 30.16 0 0 1 2.2 2.52c.14.2.3.43.37.65.07.24.06.49-.06.72-.1.2-.3.38-.53.44a.96.96 0 0 1-.83-.11 7.57 7.57 0 0 1-.9-.72l-1.03-.9c-.36-.31-.69-.65-1.03-.98l-1.09-1.05c-.69-.65-1.43-1.24-2.16-1.83l-2.2-1.8c-.5-.4-1.04-.77-1.54-1.17-.5-.4-1-.81-1.52-1.2l-1.05-.69a6.72 6.72 0 0 0-1.1-.51c-.72-.24-1.46-.46-2.2-.6.27.49.6.95.92 1.4a33.68 33.68 0 0 0 3.09 3.6l1.02 1.06c.31.31.64.6.98.9.34.3.7.58 1.06.87.38.33.77.64 1.16.96a143.96 143.96 0 0 0 3.41 2.76c.2.15.4.3.58.46l.27.25c.21.2.45.47.43.78a.93.93 0 0 1-.42.82.93.93 0 0 1-.92.05c-.2-.1-.36-.24-.53-.36l-.46-.35-1.04-.77.2.14-.63-.44a61.43 61.43 0 0 0-4.18-2.67l-1.1-.61-1.06-.62c-.36-.2-.72-.4-1.08-.58l-.68-.3c.16.3.35.58.56.85.56.64 1.16 1.23 1.78 1.8.6.57 1.22 1.13 1.87 1.64l.94.73c.33.25.64.51.94.79.6.54 1.2 1.09 1.84 1.57l1.2.8c.43.28.86.6 1.3.9l.27.18c.16.1.34.19.47.32.17.17.28.38.3.63 0 .17-.03.33-.1.48a.92.92 0 0 1-.33.34.85.85 0 0 1-.74.12 3.3 3.3 0 0 1-.47-.2l-.6-.32a11.43 11.43 0 0 0-2-.78 7.35 7.35 0 0 0-.98-.2 11.22 11.22 0 0 0-1.83.07l.08.1c.45.5.98.93 1.52 1.33l.43.3-.2-.14c.37.25.75.46 1.12.7l1.2.75c.4.25.8.53 1.21.76l1.23.68c.82.45 1.67.83 2.46 1.32l.48.29c.17.1.35.18.52.27.37.19.72.38 1.06.6.32.22.63.44.96.63.36.21.74.39 1.12.56l1.14.53c.42.2.83.4 1.26.56.65.24 1.3.47 1.94.73.7.28 1.4.58 2.1.85.2.07.38.32.45.53a.93.93 0 0 1-.6 1.16l-.23.04a.93.93 0 0 1-.48-.1c-.56-.21-1.1-.46-1.66-.68l-1.53-.6c-.44-.15-.88-.3-1.3-.48l-1.3-.6c-.43-.2-.87-.39-1.28-.6-.39-.2-.75-.43-1.11-.66-.35-.23-.69-.46-1.05-.66-.34-.19-.7-.35-1.03-.54-.36-.21-.7-.44-1.07-.63l-1.3-.67c-.46-.25-.92-.49-1.37-.75-.47-.26-.92-.55-1.38-.85l-1.33-.83-.64-.4c-.22-.13-.43-.27-.64-.42-.74-.5-1.47-1.05-2.05-1.73a4.82 4.82 0 0 1-.34-.43c-.1-.15-.16-.32-.22-.48-.13-.3-.1-.65-.06-.96l.04-.1a1.48 1.48 0 0 1 .44-.7c.27-.25.58-.39.93-.46.5-.1 1-.1 1.5-.13h.12l-.01-.01-1.01-.9c-.66-.58-1.38-1.07-2.05-1.63a40.87 40.87 0 0 1-3.07-2.94 8.2 8.2 0 0 1-.92-1.22 8.24 8.24 0 0 1-.52-1.16c-.11-.41-.1-.85.07-1.25.05-.12.15-.3.24-.39l.08-.06c.1-.12.24-.2.39-.26.3-.13.62-.11.93-.04.14.03.28.1.4.14a35.11 35.11 0 0 1 1.23.48 34.93 34.93 0 0 1-3.2-3.86c-.28-.39-.54-.78-.77-1.19a5.73 5.73 0 0 1-.35-.79 15.86 15.86 0 0 1-.12-.58c0-.14 0-.28.02-.42.06-.2.1-.42.26-.56l.27-.23c.1-.06.22-.1.33-.15l.24-.05c.08-.02.17-.03.26-.03.14 0 .31.02.45.04l.37.05.68.13a18.16 18.16 0 0 1 2.89.94c.43.2.82.46 1.2.72A23.6 23.6 0 0 1 54 56.46c-.4-.47-.78-.93-1.15-1.4a4.73 4.73 0 0 1-.73-1.34c-.1-.25-.15-.52-.17-.78-.02-.14.01-.32.05-.46a1.38 1.38 0 0 1 .98-.96c.4-.1.8-.05 1.17.09a8.26 8.26 0 0 1 2.6 1.45c.75.6 1.46 1.23 2.17 1.87.6.54 1.16 1.11 1.74 1.67.57.55 1.15 1.09 1.74 1.62.46.4.92.8 1.36 1.23l-.08-.14c-.47-.76-.93-1.53-1.27-2.36a6.08 6.08 0 0 1-.44-1.44 2.41 2.41 0 0 1 0-.71c.04-.29.16-.53.33-.76a1.26 1.26 0 0 1 1.4-.4zM111.72 42.9c.04 2.04.1 4.09.09 6.14a25.02 25.02 0 0 1-.3 2.98c-.17.92-.4 1.83-.6 2.74-.15.59-.3 1.17-.47 1.74-.2.64-.45 1.25-.78 1.83-.27.48-.55.95-.8 1.43-.29.56-.54 1.12-.76 1.71a.93.93 0 0 1-1.69-.15l-.05-.23c0-.17.03-.33.1-.48.16-.4.32-.78.5-1.17.17-.36.36-.7.55-1.06.17-.32.36-.62.54-.94.19-.33.35-.67.49-1.02.35-1.04.58-2.11.82-3.17.13-.59.26-1.17.36-1.75a19.87 19.87 0 0 0 .25-2.31v-.88l-.01-1.6-.07-3.71c-.01-.5.35-.95.87-.97a.92.92 0 0 1 .97.87zM125.35 54.3c-.2.12-.43.19-.67.2l-.02.09-.22 1.4c-.06.36-.11.73-.19 1.08-.16.76-.34 1.5-.52 2.26-.2.77-.4 1.55-.64 2.31l-.38 1.11-.3.91-.47 1.15a34.63 34.63 0 0 1-1.68 3.64c-.23.39-.45.78-.66 1.18-.22.41-.43.83-.66 1.24-.2.35-.43.7-.64 1.04-.2.34-.4.67-.62 1a15.08 15.08 0 0 1-2.08 2.28l-.9.9c-.36.35-.3.97.05 1.3.38.35.95.3 1.3-.06l1.18-1.15a17.6 17.6 0 0 0 1.8-2.02c.3-.4.56-.82.82-1.25l.65-1.07c.24-.4.44-.81.66-1.22.4-.77.85-1.51 1.23-2.3.4-.81.78-1.64 1.11-2.48.17-.42.36-.82.52-1.24.18-.48.33-.97.5-1.45.14-.44.3-.88.43-1.32.13-.44.26-.87.37-1.31.23-.88.44-1.77.64-2.65.22-.95.35-1.93.5-2.9a.96.96 0 0 0-.12-.68.93.93 0 0 0-.53-.4c-.13.16-.28.3-.46.41z" fill="#1B1B20"/><mask id="a" maskUnits="userSpaceOnUse" x="116" y="10" width="11" height="49"><path fill-rule="evenodd" clip-rule="evenodd" d="M116.7 10.5h10.25v47.67h-10.26V10.5z" fill="#fff"/></mask><g mask="url(#a)"><path fill-rule="evenodd" clip-rule="evenodd" d="M117.25 11.5c-.14.25-.33.46-.56.6l.17.11c.25.16.5.32.74.5l.61.42c.4.35.73.75 1.05 1.15l.07.1.23.3-.08-.1.24.3.55.75-.14-.18.25.33c.25.33.5.66.7 1.02a42.53 42.53 0 0 1 .68 1.46l.43 1.23c.16.44.32.88.45 1.33.13.47.28.94.4 1.41.13.5.23 1 .31 1.5l.07.5c.05.38.07.75.1 1.12.05.44.08.87.1 1.31.03.46.07.92.13 1.38l.13 1.3c.04.43.1.86.13 1.29l.11 1.24c.05.44.08.89.12 1.33.04.47.1.95.12 1.42.06.92.17 1.84.24 2.76.06.9.09 1.79.14 2.68l.08 1.27.07 1.33.09 1.45c.03.46.04.93.06 1.4.03.67.1 1.35.1 2.04v4.29c-.01.65-.02 1.31-.1 1.96l-.15 1.12c-.05.29-.13.57-.19.86-.09.42-.21.83-.33 1.25-.13.47.16.98.63 1.11a.91.91 0 0 0 1.12-.63l.35-1.38c.05-.18.1-.36.13-.55.05-.25.08-.5.1-.76.06-.4.13-.8.17-1.2.05-.45.05-.9.06-1.36.02-.88.02-1.77.02-2.65v-1.34c0-.44 0-.87-.02-1.3l-.08-1.28-.05-1.38-.1-1.4c-.03-.44-.03-.88-.06-1.31-.05-.9-.12-1.79-.15-2.68a39.3 39.3 0 0 0-.18-2.68c-.1-.94-.16-1.9-.25-2.84-.03-.4-.05-.81-.1-1.22l-.12-1.2-.21-2.33-.15-1.27a32.6 32.6 0 0 1-.08-1.25c-.01-.4-.07-.78-.1-1.17l-.16-1.37.03.24-.16-1.06-.18-.81c-.13-.55-.3-1.08-.45-1.63-.14-.49-.32-.97-.5-1.45l-.24-.7c-.1-.3-.22-.6-.35-.89-.2-.48-.4-.96-.65-1.4a9.85 9.85 0 0 0-1.05-1.49l.04.06-.26-.36-.4-.52-.04-.06-.33-.43c-.26-.34-.53-.66-.82-.96-.35-.37-.78-.63-1.19-.93l-.51-.34-.54-.36c-.05.35-.1.7-.29 1z" fill="#1B1B20"/></g><path fill-rule="evenodd" clip-rule="evenodd" d="M46.15 10.95c-.18.07-.35.15-.53.21l-.59.2c-.45.15-.9.27-1.34.46-.4.17-.79.37-1.18.55l-.54.26c-.2.1-.4.18-.58.3-.33.23-.67.45-.98.7l-1.08.8c-.35.28-.67.58-1 .86-.39.32-.77.63-1.14.97-.32.3-.63.6-.91.94-.33.4-.61.82-.92 1.22l-.05.07-.55.7c-.16.2-.3.43-.45.65-.18.26-.35.52-.52.8l-.49.82c-.3.49-.58.98-.82 1.5-.24.54-.45 1.1-.68 1.64l-.1.25-.47 1.04-.58 1.4a35.56 35.56 0 0 0-1.63 5.05l-.34 1.33c-.12.46-.2.92-.27 1.38-.17 1.05-.23 2.1-.36 3.15-.1.7-.21 1.4-.29 2.1-.06.65-.1 1.3-.17 1.94-.08.6-.2 1.22-.24 1.83-.06.7.06 1.37.16 2.05.04.22.24.44.42.54a.9.9 0 0 0 1.23-.32l.1-.22a.91.91 0 0 0 0-.48l-.08-.55a5.72 5.72 0 0 1 .03-1.58c.1-.65.2-1.29.25-1.94.05-.54.08-1.09.15-1.63.1-.75.22-1.5.3-2.25l.21-1.98c.05-.36.11-.7.18-1.06.08-.39.19-.77.28-1.15.2-.74.38-1.48.6-2.22.44-1.5.98-2.97 1.59-4.42l.59-1.34.54-1.32c.15-.34.3-.68.48-1 .2-.37.43-.72.64-1.08.23-.38.44-.77.69-1.14.2-.3.4-.6.63-.9l.5-.64-.14.19.71-.97c.21-.26.42-.5.65-.74.27-.27.56-.52.85-.78l.95-.79.74-.63.8-.6c.3-.23.63-.44.94-.65.17-.11.36-.2.54-.28l.54-.25 1.02-.5c.27-.1.53-.16.8-.25.28-.08.55-.17.83-.27l.07-.03a17.16 17.16 0 0 1 .48-1.44l.26-.7c-.25.06-.49.12-.73.2z" fill="#1B1B20"/><path fill-rule="evenodd" clip-rule="evenodd" d="M33.36 25.52l-.02.03.04-.1-.02.07zM43.06 103.34v.03-.03zm.97-23.37c-.02.47-.04.95-.04 1.43-.01.45 0 .9-.05 1.36-.07.87-.1 1.74-.11 2.6l-.01 2.52-.01 1.35-.08 1.41c-.04.88-.08 1.76-.17 2.64-.04.44-.1.87-.12 1.31l-.06 1.38c-.01.43-.06.87-.09 1.3-.03.44-.06.87-.07 1.3l-.01.67-.07.66a16.5 16.5 0 0 0-.09 2.32c0 .4.02.81 0 1.21l-.04.07c-.08.22-.02.51.1.7.11.2.3.35.53.42a.9.9 0 0 0 .7-.1l.18-.14a.9.9 0 0 0 .23-.4c.09-.2.1-.43.1-.65v-.3-.63l.02-1.2c0-.37.03-.75.06-1.13.04-.43.09-.85.1-1.29 0-.44.02-.88.05-1.32l.1-1.27c.02-.46.02-.93.05-1.4l.12-1.3c.05-.44.07-.9.1-1.35.03-.42.06-.85.07-1.27l.08-1.41c.03-.46.02-.93.02-1.39 0-1.7-.02-3.4.1-5.08.03-.25.06-.5.06-.74v-.71l.05-1.57c.02-.5-.42-.9-.9-.9-.5 0-.89.4-.9.9zM45.85 10.75zM64.1 8.82H62.15c-.75 0-1.5 0-2.25.07-.37.03-.73.08-1.1.08h-1.18c-.95.01-1.9.03-2.83.16-.33.04-.65.1-.98.16l-.74.14c-.32.03-.65.04-.98.06-.33.02-.67.07-1 .12l-.5.04c-.28.02-.57.07-.85.1l-.6.13-.63.13c-.4.09-.81.14-1.22.24-.23.05-.47.12-.7.2-.23.07-.46.18-.68.27l-.87.39c-.2.09-.36.33-.42.54a.91.91 0 0 0 .63 1.1c.26.08.47.02.7-.08l.54-.25.23-.1c.29-.11.58-.2.89-.29.3-.08.6-.12.9-.18.6-.1 1.17-.26 1.76-.36l.59-.05a11.64 11.64 0 0 1 1.56-.16c.39-.02.77-.03 1.16-.1.28-.06.56-.13.85-.17.27-.04.53-.1.8-.13.84-.1 1.7-.1 2.54-.1h1.15c.38 0 .75-.07 1.13-.1.74-.05 1.48-.05 2.23-.05h1.61c.39 0 .81.03 1.16-.17.23-.14.4-.37.53-.6a.92.92 0 0 0-.33-1.24.9.9 0 0 0-.45-.12.9.9 0 0 0-.7.32zM99.23 7.77c-.44 0-.88.02-1.31.05-.45.02-.9.04-1.34.03l-1.3-.07c-.69-.04-1.37.05-2.05.12a.97.97 0 0 0-.64.27.9.9 0 0 0 0 1.28c.16.15.42.29.64.26.44-.04.87-.1 1.3-.12.4-.02.8 0 1.2.02.45.03.9.06 1.35.05.43 0 .86-.04 1.3-.06a22.7 22.7 0 0 1 2.63 0c.81.05 1.62.08 2.43.1.47 0 .94 0 1.4.04.67.1 1.35.23 2.02.23.3 0 .6-.05.89-.05.27 0 .53.01.8.05.42.06.85.13 1.27.22l.58.12c.29.05.58.08.87.11l.65.1c.23.04.46.08.69.15l.68.17c.42.1.84.22 1.24.38l.34.17.5.2.28.13c.16.08.3.18.44.26.44.23.98.12 1.24-.32.24-.41.11-1.01-.32-1.24-.2-.1-.4-.24-.6-.33l-.65-.28-.2-.1c-.2-.1-.4-.18-.6-.26a3.8 3.8 0 0 0-.5-.16l-.5-.15c-.31-.08-.62-.14-.93-.23-.3-.1-.63-.14-.95-.18l-.45-.07-.61-.07c-.37-.06-.73-.15-1.1-.21-.2-.04-.39-.09-.59-.12l-.9-.12c-.46-.05-.9-.02-1.35.01-.41.03-.83-.02-1.23-.07-.52-.08-1.03-.16-1.55-.19l-.83-.01h-.54c-.8-.02-1.59-.08-2.38-.12a8.1 8.1 0 0 0-.43-.01l-.9.02z" fill="#1B1B20"/><path fill-rule="evenodd" clip-rule="evenodd" d="M72.95 5.58l-.45.37-.45.34-.41.34c-.26.19-.53.36-.81.52a6.83 6.83 0 0 1-2.18.92c-.4.08-.79.2-1.19.3-.38.1-.77.14-1.16.22l-.63.1-.72.16c-.48.12-.76.66-.63 1.12.13.49.63.74 1.1.63.36-.09.72-.17 1.09-.22a23.35 23.35 0 0 0 2.84-.62c.32-.08.65-.21.96-.34.4-.17.79-.37 1.17-.57.31-.17.62-.34.9-.54.31-.22.6-.47.9-.7.25-.19.5-.37.72-.58l.04-.03a.9.9 0 0 0 .14-1.1.9.9 0 0 0-.8-.44.73.73 0 0 0-.43.12z" fill="#1B1B20"/><mask id="b" maskUnits="userSpaceOnUse" x="90" y="5" width="5" height="5"><path fill-rule="evenodd" clip-rule="evenodd" d="M90.48 5h3.91v4.14h-3.91V5z" fill="#fff"/></mask><g mask="url(#b)"><path fill-rule="evenodd" clip-rule="evenodd" d="M91.15 5.03a.91.91 0 0 0-.64 1.11c.08.2.12.4.2.6a4.38 4.38 0 0 0 .59 1.03c.44.57 1.12.9 1.74 1.25.43.25.98.1 1.23-.33.25-.42.1-.99-.32-1.23-.35-.2-.71-.4-1.04-.62l-.27-.27a3.33 3.33 0 0 1-.22-.4l-.16-.5a.95.95 0 0 0-.42-.55.9.9 0 0 0-.7-.09z" fill="#1B1B20"/></g><path fill-rule="evenodd" clip-rule="evenodd" d="M83.97 50.45l.01.1-.01-.1zm-1.7-2.5c-.09.38-.15.77-.2 1.16-.04.35.01.7.05 1.05.06.5.15 1 .24 1.5.07.43.22.83.32 1.25l.37 1.48c.12.47.64.76 1.1.63a.92.92 0 0 0 .64-1.12l-.48-1.86c-.06-.26-.15-.5-.2-.77l-.16-.93c-.05-.42-.1-.84-.07-1.26l.13-.65a.94.94 0 0 0-.1-.7.91.91 0 0 0-.76-.44c-.4 0-.8.25-.88.66zM107.06 45.17a.91.91 0 0 0-.64 1.1v.3a16.56 16.56 0 0 1-.08 1.18 15.88 15.88 0 0 1-.79 3 7.9 7.9 0 0 1-.62 1.13l-.35.35c-.19.12-.39.21-.6.3l-.92.34a.96.96 0 0 0-.54.42.91.91 0 0 0 .32 1.24c.2.1.48.17.7.08.44-.16.9-.31 1.32-.5.2-.09.38-.17.56-.28.26-.16.5-.37.71-.6.3-.3.55-.7.76-1.1.2-.39.37-.8.53-1.23.14-.38.23-.77.34-1.16.1-.37.18-.74.25-1.1a10.03 10.03 0 0 0 .2-1.91c.02-.3.04-.63-.04-.93a.92.92 0 0 0-1.11-.63zM74.62 51.56a.9.9 0 0 0-.42.54l-.03.24c0 .16.04.31.12.46.18.39.36.77.59 1.14.27.45.66.78 1.07 1.08a8.28 8.28 0 0 0 2.08 1.15c.35.16.7.3 1.06.4.23.07.45.15.69.2l.83.1c.42.03.84.03 1.25.04.38 0 .76.05 1.14.09.07 0 .13.02.2.03.17 0 .32-.04.46-.13a.91.91 0 0 0 .32-1.23c-.1-.19-.32-.38-.54-.42a12.7 12.7 0 0 0-1.72-.15c-.47-.01-.94-.03-1.4-.08-.29-.05-.56-.14-.84-.22-.25-.07-.49-.16-.73-.26h.02l-.27-.11a8.97 8.97 0 0 1-1.61-.95 3.39 3.39 0 0 1-.4-.37c-.25-.38-.45-.8-.64-1.23a.91.91 0 0 0-1.23-.32zM60.93 71.97c-.25.43-.1.98.32 1.24.52.31 1.04.64 1.62.8a.91.91 0 0 0 1.1-.63.91.91 0 0 0-.62-1.11 2.85 2.85 0 0 1-.2-.07c-.34-.16-.66-.35-.99-.55a.85.85 0 0 0-.44-.12.92.92 0 0 0-.79.44zM63.24 70.53c0 .5.4.9.9.9s.9-.4.9-.9-.4-.9-.9-.9-.9.4-.9.9zM78.47 86.57h.08-.08zM70.6 83.5a.91.91 0 0 0 .1.7c.11.21.3.34.53.42l1.07.34c.29.09.56.18.84.29l.48.21c.39.17.77.33 1.17.46.44.15.9.23 1.36.29.35.05.71.1 1.07.18.44.09.88.13 1.33.19.42.06.84.1 1.27.14l.59.02c.27.01.54.04.82.07.22.03.48-.1.63-.26a.9.9 0 0 0 0-1.28l-.18-.14a.9.9 0 0 0-.45-.13c-.79-.08-1.58-.08-2.36-.19l.24.04-.95-.12c-.28-.05-.55-.11-.83-.15l-.99-.15h.06a6.27 6.27 0 0 1-1.82-.51l-.18-.08c-.45-.2-.9-.4-1.36-.55-.45-.13-.89-.27-1.33-.42a.76.76 0 0 0-.24-.04c-.4 0-.77.3-.87.67z" fill="#1B1B20"/><path fill-rule="evenodd" clip-rule="evenodd" d="M79 86.03a15.73 15.73 0 0 0-.43 3.03c-.04.92-.03 1.86-.04 2.8V102.98c.02.25.1.48.28.67a.9.9 0 0 0 .4.23l.27.03c.23.03.49-.1.64-.26a.9.9 0 0 0 .2-.95l.01-.3V97.7 92.2c0-.75 0-1.5.02-2.26.02-.7.04-1.4.12-2.09.07-.45.17-.9.28-1.35a.92.92 0 0 0-.63-1.11.86.86 0 0 0-.23-.03c-.4 0-.8.26-.88.66zM84.67 99.1c0 .5.41.91.9.91.5 0 .9-.41.9-.9 0-.5-.4-.9-.9-.9-.49 0-.9.4-.9.9zM83.8 90.72c0 .5.42.9.91.9.5 0 .9-.4.9-.9s-.4-.9-.9-.9-.9.4-.9.9zM74.84 8.68zm16.78-.26c-.39.11-.75.28-1.12.45-.38.14-.77.25-1.16.35-.2.05-.4.12-.6.16l-.49.09c-.33.03-.65.08-.98.12-.4.04-.8.02-1.19.02a21.55 21.55 0 0 1-2.4-.18c-.4-.05-.81-.06-1.21-.1-.45-.04-.89-.1-1.33-.13h-1.18c-.7-.02-1.4-.04-2.1-.11a15.88 15.88 0 0 0-1.59-.26l-.72-.1-.83-.07-.63-.09c-.21-.03-.42-.03-.63-.04l-1.48-.13a.9.9 0 0 0-.64 1.54c.18.18.39.24.64.26.37.04.73.08 1.1.1.34.03.67.04 1 .08.44.07.87.12 1.31.15l.89.1c.42.08.84.17 1.26.22.46.07.92.1 1.38.12l1.16.03h.35c.34 0 .68 0 1.02.04.45.04.9.1 1.36.13l.66.04.64.08c.9.1 1.8.12 2.7.13.34 0 .67-.04 1-.1.31-.03.63-.05.94-.1l.46-.1.55-.14c.3-.08.6-.15.89-.25.37-.12.72-.28 1.07-.44l.38-.13a.91.91 0 0 0 .63-1.1.92.92 0 0 0-1.1-.64z" fill="#1B1B20"/><path fill-rule="evenodd" clip-rule="evenodd" d="M84.2 10.14a.88.88 0 0 0-.42.54c-.09.45-.18.9-.25 1.37l-.08.73-.04.5-.12.63-.08.84-.08.41c-.05.25-.08.5-.1.76-.04.38-.03.77-.07 1.15-.05.31-.1.63-.12.94-.02.36-.03.72-.07 1.07-.03.22.11.49.26.64a.9.9 0 0 0 1.28 0l.14-.18a.9.9 0 0 0 .13-.46c.05-.5.06-.99.11-1.48.05-.34.1-.67.1-1.01.01-.28.03-.55.06-.82.04-.24.1-.47.12-.71l.09-.8.14-.88c.04-.3.05-.62.09-.93.06-.43.15-.86.23-1.3a.95.95 0 0 0-.09-.69.91.91 0 0 0-.78-.45.9.9 0 0 0-.45.13zM87.48 15.32c0 .5.42.9.9.9.5 0 .91-.4.91-.9s-.41-.9-.9-.9c-.5 0-.9.4-.9.9zM76.42 70.45c0 .49.41.9.9.9.5 0 .9-.41.9-.9 0-.5-.4-.9-.9-.9-.49 0-.9.4-.9.9z" fill="#1B1B20"/><path fill-rule="evenodd" clip-rule="evenodd" d="M77.15 67.95a.94.94 0 0 0-.26.64c-.06.83-.1 1.67-.17 2.5-.07.78-.08 1.56-.16 2.34-.13.9-.3 1.8-.42 2.7-.15 1.01-.3 2.02-.48 3.03-.08.46-.19.93-.3 1.39-.05.24-.11.47-.15.72l-.1.6c-.06.32-.15.62-.22.93-.06.24-.13.47-.22.7l-.44 1a1.63 1.63 0 0 0-.3.58 1.7 1.7 0 0 0-.04.31v.03c0 .17.04.32.12.46.14.31.5.5.82.55.16.02.3.07.46.1.42.1.85.13 1.28.1l.56-.04c.18-.02.36-.01.55 0 .24.04.47.1.7.16.43.12.86.15 1.29.16.49 0 .9-.42.9-.9 0-.51-.41-.9-.9-.91a8.4 8.4 0 0 1-.53-.03l-.7-.17a4.95 4.95 0 0 0-1.02-.13c-.29-.01-.57.03-.85.05-.18.02-.36.02-.53 0l.2-.42c.11-.27.22-.54.31-.82.08-.24.13-.48.19-.73l.1-.4.07-.48c.07-.44.18-.86.27-1.3l.15-.67.14-.78c.1-.52.18-1.05.26-1.58.09-.55.16-1.1.24-1.66.08-.59.19-1.17.28-1.76.1-.65.17-1.3.2-1.97.03-.58.08-1.15.13-1.73.05-.64.07-1.29.11-1.93.04-.5-.43-.9-.9-.9a.9.9 0 0 0-.64.26z" fill="#1B1B20"/></svg>
